<svg width="160" height="40" fill="none" xmlns="http://www.w3.org/2000/svg"><mask id="a" style="mask-type:luminance" maskUnits="userSpaceOnUse" x="0" y="0" width="160" height="40"><path d="M159.8 0H0v40h159.8V0Z" fill="#fff"/></mask><g mask="url(#a)" fill="#0E1011"><path fill-rule="evenodd" clip-rule="evenodd" d="m23.059.262 7.646 9.065 1.784 16.751-13.497 14.184L3.29 26.032l7.907-20.119L23.059.262ZM11.882 7.458l6.307 6.662-6.45 9.356-6.76 1.546 6.903-17.564ZM5.263 26.194 17.25 37.057 11.753 24.71l-6.49 1.484Zm7.806-1.485 6.076 13.645 11.424-12.005-17.5-1.64Zm18.026-.363-1.482-13.915-9.538 3.832 11.02 10.083ZM19.116 13.348 29.13 9.326 22.74 1.75 12.676 6.544l6.44 6.804Zm-.052 1.623L30.13 25.096l-16.95-1.589 5.885-8.536Z"/><path d="M80.406 31.7c-3.389 0-6.249-1.1-8.537-3.345-2.287-2.244-3.431-5.06-3.431-8.404 0-3.344 1.144-6.116 3.431-8.36 2.288-2.244 5.148-3.388 8.537-3.388 2.86 0 5.323.836 7.48 2.508 2.156 1.628 3.52 3.784 4.092 6.38h-4.004c-1.189-3.124-4.049-5.236-7.569-5.236-2.332 0-4.224.792-5.764 2.332-1.54 1.54-2.288 3.432-2.288 5.764 0 2.332.749 4.268 2.288 5.808 1.54 1.54 3.432 2.288 5.764 2.288 3.52 0 6.38-2.112 7.569-5.236h4.004c-.572 2.596-1.936 4.752-4.093 6.424-2.156 1.628-4.62 2.464-7.48 2.464Zm48.941-21.165c-1.54-1.54-3.564-2.332-6.072-2.332-3.74 0-6.468 1.54-8.096 4.664-1.276-2.948-4.092-4.664-7.656-4.664-3.256 0-5.72 1.232-7.348 3.74V8.731h-3.784v22.44h3.784V17.84c0-3.564 2.464-5.984 6.16-5.984 3.52 0 5.808 2.332 5.808 5.896v13.42h3.784V17.84c0-3.564 2.464-5.984 6.16-5.984 3.52 0 5.808 2.332 5.808 5.896v13.42h3.784V16.695c0-2.596-.792-4.62-2.332-6.16Z"/><path fill-rule="evenodd" clip-rule="evenodd" d="M159.647 21.403c.041-.522.078-1.005.078-1.452 0-3.344-1.144-6.116-3.432-8.36-2.244-2.244-5.104-3.388-8.492-3.388-3.388 0-6.248 1.144-8.536 3.388-2.244 2.244-3.388 5.016-3.388 8.36 0 3.344 1.144 6.16 3.388 8.404 2.288 2.244 5.148 3.344 8.536 3.344 5.456 0 9.856-3.08 11.484-7.7h-4.18c-1.188 2.508-3.96 4.224-7.304 4.224-2.024 0-3.784-.616-5.236-1.848-1.452-1.232-2.332-2.86-2.64-4.84h19.712l.01-.132Zm-3.97-3.256h-15.708c.748-3.872 3.828-6.468 7.832-6.468s7.172 2.64 7.876 6.468ZM65.168 8.73H48.096v3.652h13.288v4.4h-6.688c-2.332 0-4.268.704-5.808 2.157-1.54 1.407-2.288 3.168-2.288 5.28 0 2.155.748 3.915 2.288 5.367 1.54 1.409 3.476 2.113 5.808 2.113 3.036 0 5.676-1.32 7.084-3.432v2.904h3.388V8.73Zm-3.784 15.093c0 2.64-2.508 4.444-6.204 4.444-2.684 0-4.664-1.716-4.664-4.049 0-2.288 1.98-4.003 4.664-4.003h6.204v3.608Z"/></g></svg>