<svg width="333" height="90" fill="none" xmlns="http://www.w3.org/2000/svg"><g clip-path="url(#a)"><mask id="b" style="mask-type:luminance" maskUnits="userSpaceOnUse" x="0" y="0" width="333" height="90"><path d="M333 0H0v90h333V0Z" fill="#fff"/></mask><g mask="url(#b)" fill="#fff"><path fill-rule="evenodd" clip-rule="evenodd" d="M29.403 35.412a17.578 17.578 0 1 1 31.05 1.183L46.27 61.201l4.253 7.367L66.848 40.29a24.943 24.943 0 0 0-43.2-24.944 24.656 24.656 0 0 0-2.097 20.29 27.898 27.898 0 0 1 3.429-.215l4.423-.01Zm57.218 14.31a24.665 24.665 0 0 0-16.776-12.01 27.795 27.795 0 0 1-1.525 3.09l-2.224 3.848a17.578 17.578 0 1 1-16.299 26.334L35.636 46.46h-8.5l16.28 28.206a26.11 26.11 0 0 0 1.859 2.772l.135.176a24.63 24.63 0 0 0 19.606 9.522 24.94 24.94 0 0 0 24.94-24.943 24.927 24.927 0 0 0-3.34-12.47h.005ZM33.1 77.784a17.572 17.572 0 0 0 6.567-5.936l2.155 3.753a26.74 26.74 0 0 0 1.99 2.957 24.644 24.644 0 0 1-18.833 8.577A24.942 24.942 0 0 1 7.126 44.438a24.944 24.944 0 0 1 17.854-7.186H57.6l-4.239 7.362H24.98a17.582 17.582 0 0 0-9.006 32.676 17.575 17.575 0 0 0 17.127.494Z"/><path d="m151.273 72.91-1.296-6.156-.648-.243a3.383 3.383 0 0 1-1.863.567c-1.296 0-2.43-.73-3.807-2.268l-11.664-13.69 16.038-17.252-.243-.567h-9.477l-16.767 18.468V19.045l-.648-.486-8.181 1.215V73.8h8.829V60.355l3.969-4.293 11.421 13.77c2.43 2.997 5.508 4.94 9.396 4.94 2.025 0 3.564-.485 4.617-1.214l.324-.648Z"/><path fill-rule="evenodd" clip-rule="evenodd" d="M266.598 32.33c12.312 0 20.655 9.396 20.655 21.222s-8.343 21.222-20.655 21.222c-5.751 0-10.611-2.35-14.094-5.913v4.94h-7.938V19.857l8.262-1.215.567.405v18.387c3.402-3.16 7.938-5.103 13.203-5.103Zm-1.053 34.749c7.614 0 12.636-5.994 12.636-13.527 0-7.452-5.022-13.527-12.636-13.527-7.128 0-12.798 4.698-12.798 13.527 0 8.829 5.67 13.527 12.798 13.527Zm65.845-.245 1.296 5.994-.324.567c-1.134.81-2.835 1.377-4.86 1.377-3.645 0-6.318-1.944-7.371-5.265-3.483 3.321-8.505 5.265-13.851 5.265-8.343 0-16.038-4.617-16.038-13.365 0-8.99 8.1-13.122 18.063-13.122 4.374 0 7.776.81 10.692 1.863V47.88c0-5.832-5.265-8.667-10.854-8.667-4.617 0-8.181 1.944-11.016 4.698h-.648l-4.455-4.212v-.648c4.374-4.212 9.963-6.723 16.929-6.723 8.748 0 18.711 3.888 18.711 15.552v15.633c0 2.187.405 3.564 1.863 3.564.567 0 .972-.243 1.296-.486l.567.243Zm-12.393-7.695v-2.997c-2.106-.81-5.589-1.863-9.558-1.863-6.399 0-10.368 2.754-10.368 7.128 0 4.617 4.374 6.885 8.991 6.885 5.589 0 10.935-3.483 10.935-9.153Z"/><path d="M236.599 49.42c0-10.126-6.561-17.092-16.848-17.092-5.427 0-10.044 1.944-13.203 5.103-1.053-3.24-3.564-5.103-7.29-5.103-2.106 0-3.888.567-5.022 1.377l-.324.567 1.296 5.994.567.243c.324-.243.729-.486 1.296-.486 1.539 0 1.863 1.377 1.863 3.564V73.8h8.91V50.148c0-6.156 4.131-10.206 10.206-10.206 6.075 0 9.72 4.05 9.72 10.206V73.8h8.829V49.42Z"/><path fill-rule="evenodd" clip-rule="evenodd" d="m191.709 66.834 1.296 5.994-.324.567c-1.134.81-2.835 1.377-4.86 1.377-3.645 0-6.318-1.944-7.371-5.265-3.483 3.321-8.505 5.265-13.851 5.265-8.343 0-16.038-4.617-16.038-13.365 0-8.99 8.1-13.122 18.063-13.122 4.374 0 7.776.81 10.692 1.863V47.88c0-5.832-5.265-8.667-10.854-8.667-4.617 0-8.181 1.944-11.016 4.698h-.648l-4.455-4.212v-.648c4.374-4.212 9.963-6.723 16.929-6.723 8.748 0 18.711 3.888 18.711 15.552v15.633c0 2.187.405 3.564 1.863 3.564.567 0 .972-.243 1.296-.486l.567.243Zm-12.393-7.695v-2.997c-2.106-.81-5.589-1.863-9.558-1.863-6.399 0-10.368 2.754-10.368 7.128 0 4.617 4.374 6.885 8.991 6.885 5.589 0 10.935-3.483 10.935-9.153Z"/></g></g><defs><clipPath id="a"><path fill="#fff" d="M0 0h333v90H0z"/></clipPath></defs></svg>