<svg width="148" height="40" fill="none" xmlns="http://www.w3.org/2000/svg"><g clip-path="url(#a)"><mask id="b" style="mask-type:luminance" maskUnits="userSpaceOnUse" x="0" y="0" width="148" height="40"><path d="M148 0H0v40h148V0Z" fill="#fff"/></mask><g mask="url(#b)" fill="#0E1011"><path fill-rule="evenodd" clip-rule="evenodd" d="M13.068 15.74a7.813 7.813 0 1 1 13.8.525l-6.304 10.936 1.89 3.274 7.256-12.568a11.086 11.086 0 0 0-19.2-11.086 10.958 10.958 0 0 0-.932 9.018 12.384 12.384 0 0 1 1.524-.096l1.966-.004Zm25.43 6.36a10.962 10.962 0 0 0-7.456-5.339c-.197.472-.424.93-.678 1.374l-.988 1.71a7.812 7.812 0 1 1-7.244 11.704l-6.294-10.9H12.06l7.236 12.536c.249.428.525.84.826 1.232l.06.078a10.948 10.948 0 0 0 8.714 4.232 11.085 11.085 0 0 0 9.6-16.628h.002ZM14.711 34.571a7.81 7.81 0 0 0 2.92-2.639l.957 1.668c.265.458.56.897.884 1.314a10.953 10.953 0 0 1-8.37 3.812 11.085 11.085 0 1 1 0-22.17H25.6l-1.884 3.272H11.102a7.814 7.814 0 0 0-.225 15.623 7.813 7.813 0 0 0 3.834-.88Z"/><path d="m67.232 32.406-.576-2.736-.288-.108a1.503 1.503 0 0 1-.828.252c-.576 0-1.08-.324-1.692-1.008l-5.184-6.084 7.128-7.668-.108-.252h-4.212L54.02 23.01V8.466l-.288-.216-3.636.54v24.012h3.924v-5.976l1.764-1.908 5.076 6.12c1.08 1.332 2.448 2.196 4.176 2.196.9 0 1.584-.216 2.052-.54l.144-.288Z"/><path fill-rule="evenodd" clip-rule="evenodd" d="M118.489 14.37c5.472 0 9.18 4.175 9.18 9.431 0 5.256-3.708 9.432-9.18 9.432a8.65 8.65 0 0 1-6.264-2.628v2.196h-3.528V8.825l3.672-.54.252.18v8.172c1.512-1.404 3.528-2.268 5.868-2.268Zm-.468 15.443c3.384 0 5.616-2.664 5.616-6.012 0-3.312-2.232-6.012-5.616-6.012-3.168 0-5.688 2.088-5.688 6.012 0 3.924 2.52 6.012 5.688 6.012Zm29.263-.106.576 2.664-.144.252c-.504.36-1.26.612-2.16.612-1.62 0-2.808-.864-3.276-2.34-1.548 1.476-3.78 2.34-6.156 2.34-3.708 0-7.128-2.052-7.128-5.94 0-3.996 3.6-5.832 8.028-5.832 1.944 0 3.456.36 4.752.828v-1.008c0-2.592-2.34-3.852-4.824-3.852-2.052 0-3.636.864-4.896 2.088h-.288l-1.98-1.872v-.288c1.944-1.872 4.428-2.988 7.524-2.988 3.888 0 8.316 1.728 8.316 6.912v6.948c0 .972.18 1.584.828 1.584.252 0 .432-.108.576-.216l.252.108Zm-5.508-3.42v-1.332c-.936-.36-2.484-.828-4.248-.828-2.844 0-4.608 1.224-4.608 3.168 0 2.052 1.944 3.06 3.996 3.06 2.484 0 4.86-1.548 4.86-4.068Z"/><path d="M105.156 21.967c0-4.5-2.916-7.596-7.488-7.596-2.412 0-4.464.864-5.868 2.268-.468-1.44-1.584-2.268-3.24-2.268-.936 0-1.728.252-2.232.612l-.144.252.576 2.664.252.108c.144-.108.324-.216.576-.216.684 0 .828.612.828 1.584v13.428h3.96V22.291c0-2.736 1.836-4.536 4.536-4.536 2.7 0 4.32 1.8 4.32 4.536v10.512h3.924V21.967Z"/><path fill-rule="evenodd" clip-rule="evenodd" d="m85.204 29.707.576 2.664-.144.252c-.504.36-1.26.612-2.16.612-1.62 0-2.808-.864-3.276-2.34-1.548 1.476-3.78 2.34-6.156 2.34-3.708 0-7.128-2.052-7.128-5.94 0-3.996 3.6-5.832 8.028-5.832 1.944 0 3.456.36 4.752.828v-1.008c0-2.592-2.34-3.852-4.824-3.852-2.052 0-3.636.864-4.896 2.088h-.288l-1.98-1.872v-.288c1.944-1.872 4.428-2.988 7.524-2.988 3.888 0 8.316 1.728 8.316 6.912v6.948c0 .972.18 1.584.828 1.584.252 0 .432-.108.576-.216l.252.108Zm-5.508-3.42v-1.332c-.936-.36-2.484-.828-4.248-.828-2.844 0-4.608 1.224-4.608 3.168 0 2.052 1.944 3.06 3.996 3.06 2.484 0 4.86-1.548 4.86-4.068Z"/></g></g><defs><clipPath id="a"><path fill="#fff" d="M0 0h148v40H0z"/></clipPath></defs></svg>