<svg width="160" height="40" viewBox="0 0 160 40" fill="none" xmlns="http://www.w3.org/2000/svg">
<mask id="mask0_3903_9997" style="mask-type:luminance" maskUnits="userSpaceOnUse" x="0" y="0" width="160" height="40">
<path d="M159.8 0H0V40H159.8V0Z" fill="white"/>
</mask>
<g mask="url(#mask0_3903_9997)">
<path fill-rule="evenodd" clip-rule="evenodd" d="M23.0588 0.261719L30.7054 9.32692L32.489 26.0784L18.9923 40.2618L3.28906 26.0318L11.196 5.91322L23.0588 0.261719ZM11.8817 7.45772L18.1887 14.1205L11.7387 23.4758L4.97874 25.0218L11.8817 7.45772ZM5.26296 26.1944L17.2503 37.0572L11.7526 24.7104L5.26296 26.1944ZM13.0691 24.7088L19.1449 38.354L30.5688 26.349L13.0691 24.7088ZM31.0952 24.3464L29.6134 10.4315L20.075 14.263L31.0952 24.3464ZM19.1164 13.3483L29.1292 9.3262L22.7386 1.75007L12.6756 6.54418L19.1164 13.3483ZM19.0644 14.9714L30.1294 25.0958L13.1794 23.5072L19.0644 14.9714Z" fill="#0E1011"/>
<path d="M80.4055 31.6991C77.0175 31.6991 74.1575 30.5991 71.8695 28.3551C69.5815 26.1111 68.4375 23.2951 68.4375 19.9511C68.4375 16.6071 69.5815 13.8351 71.8695 11.5911C74.1575 9.34712 77.0175 8.20312 80.4055 8.20312C83.2655 8.20312 85.7295 9.03913 87.8855 10.7111C90.0415 12.3391 91.4055 14.4951 91.9775 17.0911H87.9735C86.7855 13.9671 83.9255 11.8551 80.4055 11.8551C78.0735 11.8551 76.1815 12.6471 74.6415 14.1871C73.1015 15.7271 72.3535 17.6191 72.3535 19.9511C72.3535 22.2831 73.1015 24.2191 74.6415 25.7591C76.1815 27.2991 78.0735 28.0471 80.4055 28.0471C83.9255 28.0471 86.7855 25.9351 87.9735 22.8111H91.9775C91.4055 25.4071 90.0415 27.5631 87.8855 29.2351C85.7295 30.8631 83.2655 31.6991 80.4055 31.6991Z" fill="#0E1011"/>
<path d="M129.347 10.5351C127.807 8.99512 125.783 8.20312 123.275 8.20312C119.535 8.20312 116.807 9.74312 115.179 12.8671C113.903 9.91912 111.087 8.20312 107.523 8.20312C104.267 8.20312 101.803 9.43513 100.175 11.9431V8.73112H96.3906V31.1711H100.175V17.8391C100.175 14.2751 102.639 11.8551 106.335 11.8551C109.855 11.8551 112.143 14.1871 112.143 17.7511V31.1711H115.927V17.8391C115.927 14.2751 118.391 11.8551 122.087 11.8551C125.607 11.8551 127.895 14.1871 127.895 17.7511V31.1711H131.679V16.6951C131.679 14.0991 130.887 12.0751 129.347 10.5351Z" fill="#0E1011"/>
<path fill-rule="evenodd" clip-rule="evenodd" d="M159.647 21.4031V21.4027C159.688 20.8813 159.725 20.3975 159.725 19.9511C159.725 16.6071 158.581 13.8351 156.293 11.5911C154.049 9.34712 151.189 8.20312 147.801 8.20312C144.413 8.20312 141.553 9.34712 139.265 11.5911C137.021 13.8351 135.877 16.6071 135.877 19.9511C135.877 23.2951 137.021 26.1111 139.265 28.3551C141.553 30.5991 144.413 31.6991 147.801 31.6991C153.257 31.6991 157.657 28.6191 159.285 23.9991H155.105C153.917 26.5071 151.145 28.2231 147.801 28.2231C145.777 28.2231 144.017 27.6071 142.565 26.3751C141.113 25.1431 140.233 23.5151 139.925 21.5351H159.637L159.647 21.4031ZM155.677 18.1471H139.969C140.717 14.2751 143.797 11.6791 147.801 11.6791C151.805 11.6791 154.973 14.3191 155.677 18.1471Z" fill="#0E1011"/>
<path fill-rule="evenodd" clip-rule="evenodd" d="M65.1676 8.73047H48.0956V12.3825H61.3836V16.7825H54.6956C52.3636 16.7825 50.4276 17.4865 48.8876 18.9385C47.3476 20.3465 46.5996 22.1065 46.5996 24.2185C46.5996 26.3745 47.3476 28.1345 48.8876 29.5865C50.4276 30.9945 52.3636 31.6985 54.6956 31.6985C57.7316 31.6985 60.3716 30.3785 61.7796 28.2666V31.1705H65.1676V8.73047ZM61.3836 23.8225C61.3836 26.4625 58.8756 28.2666 55.1796 28.2666C52.4956 28.2666 50.5156 26.5505 50.5156 24.2185C50.5156 21.9305 52.4956 20.2145 55.1796 20.2145H61.3836V23.8225Z" fill="#0E1011"/>
</g>
</svg>
