<svg width="148" height="40" viewBox="0 0 148 40" fill="none" xmlns="http://www.w3.org/2000/svg">
<g clip-path="url(#clip0_3903_10007)">
<mask id="mask0_3903_10007" style="mask-type:luminance" maskUnits="userSpaceOnUse" x="0" y="0" width="148" height="40">
<path d="M148 0H0V40H148V0Z" fill="white"/>
</mask>
<g mask="url(#mask0_3903_10007)">
<path fill-rule="evenodd" clip-rule="evenodd" d="M13.0682 15.7394C12.4841 14.5258 12.2237 13.1818 12.3122 11.8379C12.4008 10.4939 12.8353 9.19575 13.5736 8.06929C14.3119 6.94283 15.3288 6.02639 16.5258 5.40891C17.7227 4.79143 19.059 4.49389 20.4048 4.54519C21.7508 4.59649 23.0604 4.99489 24.207 5.70169C25.3534 6.40849 26.2976 7.39969 26.948 8.57907C27.5984 9.75847 27.933 11.086 27.919 12.4327C27.905 13.7795 27.543 15.0998 26.8682 16.2654L20.5642 27.2014L22.4542 30.4754L29.7102 17.9074C31.1424 15.3635 31.5132 12.3574 30.7424 9.54173C29.9716 6.72603 28.1214 4.32801 25.5932 2.86827C23.065 1.40854 20.0632 1.00492 17.2393 1.74504C14.4153 2.48517 11.9973 4.30929 10.5102 6.82139C9.72038 8.17101 9.22858 9.67405 9.06782 11.2295C8.90706 12.7849 9.08108 14.3568 9.57818 15.8394C10.0837 15.7761 10.5927 15.744 11.1022 15.7434L13.0682 15.7394ZM38.4982 22.0994C37.7146 20.724 36.6424 19.5345 35.3554 18.613C34.0682 17.6915 32.5968 17.0598 31.0422 16.7614C30.8448 17.233 30.6184 17.6919 30.3642 18.1354L29.3762 19.8454C30.7246 19.9282 32.0284 20.3594 33.1604 21.0966C34.2924 21.8338 35.214 22.8522 35.835 24.0518C36.456 25.2516 36.7552 26.592 36.7034 27.942C36.6516 29.2918 36.2508 30.6054 35.5398 31.754C34.8288 32.9028 33.832 33.8474 32.647 34.496C31.4618 35.1444 30.1288 35.4744 28.778 35.4538C27.4272 35.4332 26.1048 35.0626 24.94 34.3784C23.7752 33.694 22.8078 32.7192 22.1322 31.5494L15.8382 20.6494H12.0602L19.2962 33.1854C19.545 33.6132 19.8209 34.0248 20.1222 34.4174L20.1822 34.4954C21.2128 35.822 22.5346 36.8936 24.0458 37.6274C25.5568 38.3614 27.2164 38.7376 28.8962 38.7274C30.842 38.7272 32.7534 38.2148 34.4384 37.2418C36.1234 36.2688 37.5228 34.8694 38.4956 33.1844C39.4686 31.4992 39.9808 29.5878 39.9808 27.642C39.981 25.6962 39.4688 23.7846 38.4962 22.0994H38.4982ZM14.7114 34.5718C15.8935 33.9558 16.8983 33.0476 17.6301 31.9334L18.5881 33.6014C18.8532 34.0586 19.1486 34.4976 19.4721 34.9154C18.4367 36.1196 17.1518 37.0842 15.7065 37.7424C14.2613 38.4006 12.6902 38.7368 11.1021 38.7274C9.63386 38.7472 8.17634 38.475 6.81414 37.9268C5.45196 37.3786 4.21226 36.5652 3.16702 35.5338C2.12178 34.5026 1.29183 33.274 0.725362 31.9192C0.158892 30.5646 -0.132812 29.1108 -0.132812 27.6424C-0.132812 26.174 0.158892 24.7204 0.725362 23.3656C1.29183 22.011 2.12178 20.7822 3.16702 19.7509C4.21226 18.7196 5.45196 17.9063 6.81414 17.358C8.17634 16.8098 9.63386 16.5377 11.1021 16.5574H25.6L23.716 19.8294H11.1021C9.73086 19.83 8.38394 20.1916 7.19664 20.8776C6.00932 21.5636 5.02346 22.5498 4.33802 23.7376C3.6526 24.9252 3.29178 26.2722 3.29178 27.6434C3.2918 29.0148 3.65264 30.3618 4.33808 31.5494C5.00436 32.704 5.95502 33.6686 7.09958 34.3518C8.24414 35.035 9.5445 35.4138 10.8769 35.4524C12.2093 35.4908 13.5293 35.1876 14.7114 34.5718Z" fill="#0E1011"/>
<path d="M67.2317 32.406L66.6557 29.67L66.3677 29.562C66.1517 29.706 65.8637 29.814 65.5397 29.814C64.9637 29.814 64.4597 29.49 63.8477 28.806L58.6637 22.722L65.7917 15.054L65.6837 14.802H61.4717L54.0197 23.01V8.466L53.7317 8.25L50.0957 8.79V32.802H54.0197V26.826L55.7837 24.918L60.8597 31.038C61.9397 32.37 63.3077 33.234 65.0357 33.234C65.9357 33.234 66.6197 33.018 67.0877 32.694L67.2317 32.406Z" fill="#0E1011"/>
<path fill-rule="evenodd" clip-rule="evenodd" d="M118.489 14.3692C123.961 14.3692 127.669 18.5452 127.669 23.8012C127.669 29.0572 123.961 33.2332 118.489 33.2332C115.933 33.2332 113.773 32.1892 112.225 30.6052V32.8012H108.697V8.82516L112.369 8.28516L112.621 8.46516V16.6372C114.133 15.2332 116.149 14.3692 118.489 14.3692ZM118.021 29.8132C121.405 29.8132 123.637 27.1492 123.637 23.8012C123.637 20.4892 121.405 17.7892 118.021 17.7892C114.853 17.7892 112.333 19.8772 112.333 23.8012C112.333 27.7252 114.853 29.8132 118.021 29.8132Z" fill="#0E1011"/>
<path fill-rule="evenodd" clip-rule="evenodd" d="M147.284 29.7071L147.86 32.3711L147.716 32.6231C147.212 32.9831 146.456 33.2351 145.556 33.2351C143.936 33.2351 142.748 32.3711 142.28 30.8951C140.732 32.3711 138.5 33.2351 136.124 33.2351C132.416 33.2351 128.996 31.1831 128.996 27.2951C128.996 23.2991 132.596 21.4631 137.024 21.4631C138.968 21.4631 140.48 21.8231 141.776 22.2911V21.2831C141.776 18.6911 139.436 17.4311 136.952 17.4311C134.9 17.4311 133.316 18.2951 132.056 19.5191H131.768L129.788 17.6471V17.3591C131.732 15.4871 134.216 14.3711 137.312 14.3711C141.2 14.3711 145.628 16.0991 145.628 21.2831V28.2311C145.628 29.2031 145.808 29.8151 146.456 29.8151C146.708 29.8151 146.888 29.7071 147.032 29.5991L147.284 29.7071ZM141.776 26.2871V24.9551C140.84 24.5951 139.292 24.1271 137.528 24.1271C134.684 24.1271 132.92 25.3511 132.92 27.2951C132.92 29.3471 134.864 30.3551 136.916 30.3551C139.4 30.3551 141.776 28.8071 141.776 26.2871Z" fill="#0E1011"/>
<path d="M105.156 21.9671C105.156 17.4671 102.24 14.3711 97.6676 14.3711C95.2556 14.3711 93.2036 15.2351 91.7996 16.6391C91.3316 15.1991 90.2156 14.3711 88.5596 14.3711C87.6236 14.3711 86.8316 14.6231 86.3276 14.9831L86.1836 15.2351L86.7596 17.8991L87.0116 18.0071C87.1556 17.8991 87.3356 17.7911 87.5876 17.7911C88.2716 17.7911 88.4156 18.4031 88.4156 19.3751V32.8031H92.3756V22.2911C92.3756 19.5551 94.2116 17.7551 96.9116 17.7551C99.6116 17.7551 101.232 19.5551 101.232 22.2911V32.8031H105.156V21.9671Z" fill="#0E1011"/>
<path fill-rule="evenodd" clip-rule="evenodd" d="M85.204 29.7071L85.78 32.3711L85.636 32.6231C85.132 32.9831 84.376 33.2351 83.476 33.2351C81.856 33.2351 80.668 32.3711 80.2 30.8951C78.652 32.3711 76.42 33.2351 74.044 33.2351C70.336 33.2351 66.916 31.1831 66.916 27.2951C66.916 23.2991 70.516 21.4631 74.944 21.4631C76.888 21.4631 78.4 21.8231 79.696 22.2911V21.2831C79.696 18.6911 77.356 17.4311 74.872 17.4311C72.82 17.4311 71.236 18.2951 69.976 19.5191H69.688L67.708 17.6471V17.3591C69.652 15.4871 72.136 14.3711 75.232 14.3711C79.12 14.3711 83.548 16.0991 83.548 21.2831V28.2311C83.548 29.2031 83.728 29.8151 84.376 29.8151C84.628 29.8151 84.808 29.7071 84.952 29.5991L85.204 29.7071ZM79.696 26.2871V24.9551C78.76 24.5951 77.212 24.1271 75.448 24.1271C72.604 24.1271 70.84 25.3511 70.84 27.2951C70.84 29.3471 72.784 30.3551 74.836 30.3551C77.32 30.3551 79.696 28.8071 79.696 26.2871Z" fill="#0E1011"/>
</g>
</g>
<defs>
<clipPath id="clip0_3903_10007">
<rect width="148" height="40" fill="white"/>
</clipPath>
</defs>
</svg>
