<svg width="361" height="90" viewBox="0 0 361 90" fill="none" xmlns="http://www.w3.org/2000/svg">
<g clip-path="url(#clip0_3903_10118)">
<path d="M349.052 8.29102L360.001 81.7075H340.421L339.467 68.5117H332.607L331.471 81.7075H311.664L321.386 8.29102H349.052ZM338.922 55.4968C337.953 47.1835 336.983 36.9199 336.014 24.7066C334.076 38.7338 332.864 48.9975 332.38 55.4968H338.922Z" fill="white"/>
<path d="M309.278 8.29102V81.7075H290.152V8.29102H309.278Z" fill="white"/>
<path d="M283.451 30.5117H265.688V25.0701C265.688 22.5307 265.461 20.9133 265.007 20.218C264.552 19.5227 263.795 19.175 262.735 19.175C261.584 19.175 260.706 19.6436 260.1 20.5807C259.525 21.5179 259.237 22.9388 259.237 24.8434C259.237 27.2921 259.57 29.1362 260.236 30.3757C260.872 31.6152 262.674 33.1116 265.642 34.865C274.153 39.9136 279.513 44.0553 281.724 47.29C283.935 50.5246 285.041 55.7397 285.041 62.9347C285.041 68.1646 284.42 72.0189 283.178 74.4979C281.967 76.977 279.604 79.0632 276.091 80.7561C272.578 82.4188 268.489 83.25 263.825 83.25C258.707 83.25 254.33 82.2825 250.696 80.3479C247.092 78.4129 244.73 75.9492 243.609 72.9562C242.489 69.9633 241.928 65.7158 241.928 60.2141V55.4071H259.691V64.3405C259.691 67.0914 259.933 68.8599 260.418 69.646C260.933 70.4322 261.826 70.8251 263.099 70.8251C264.37 70.8251 265.309 70.326 265.915 69.3284C266.551 68.3307 266.869 66.8498 266.869 64.8846C266.869 60.5615 266.278 57.735 265.097 56.4048C263.886 55.0746 260.903 52.8525 256.148 49.7389C251.393 46.5948 248.243 44.3122 246.698 42.8914C245.154 41.4705 243.867 39.5055 242.837 36.9963C241.837 34.4871 241.338 31.2826 241.338 27.3828C241.338 21.7598 242.049 17.6483 243.473 15.0485C244.927 12.4486 247.259 10.4231 250.469 8.97201C253.679 7.49065 257.556 6.75 262.099 6.75C267.066 6.75 271.291 7.55113 274.774 9.15336C278.287 10.7556 280.604 12.7811 281.724 15.2298C282.875 17.6483 283.451 21.7749 283.451 27.6095V30.5117Z" fill="white"/>
<path d="M236.679 51.2806C236.679 58.657 236.498 63.8869 236.134 66.9703C235.801 70.024 234.711 72.8204 232.863 75.3597C231.046 77.899 228.578 79.8489 225.458 81.2092C222.339 82.5696 218.704 83.25 214.555 83.25C210.618 83.25 207.075 82.6151 203.925 81.3456C200.806 80.0455 198.292 78.1105 196.384 75.541C194.476 72.9715 193.34 70.1748 192.977 67.1517C192.613 64.1286 192.432 58.8384 192.432 51.2806V38.7195C192.432 31.3431 192.598 26.1282 192.931 23.0748C193.295 19.9913 194.385 17.1797 196.202 14.6403C198.049 12.1009 200.533 10.151 203.652 8.79062C206.772 7.43022 210.406 6.75 214.555 6.75C218.492 6.75 222.021 7.39998 225.14 8.69989C228.29 9.96961 230.819 11.8893 232.727 14.459C234.635 17.0286 235.771 19.825 236.134 22.8481C236.498 25.8712 236.679 31.1617 236.679 38.7195V51.2806ZM217.554 27.1561C217.554 23.7399 217.357 21.5633 216.963 20.6261C216.6 19.6587 215.828 19.175 214.646 19.175C213.647 19.175 212.875 19.568 212.329 20.354C211.814 21.1098 211.557 23.3771 211.557 27.1561V61.4381C211.557 65.7009 211.724 68.3307 212.057 69.3284C212.42 70.326 213.238 70.8251 214.51 70.8251C215.812 70.8251 216.645 70.2504 217.008 69.102C217.372 67.9531 217.554 65.2172 217.554 60.894V27.1561Z" fill="white"/>
<path d="M189.547 8.29102V22.9834H178.19V81.7075H159.064V22.9834H147.752V8.29102H189.547Z" fill="white"/>
<path d="M144.549 8.29102V57.3562C144.549 62.9187 144.367 66.8337 144.004 69.1012C143.64 71.3382 142.565 73.6507 140.778 76.0389C138.991 78.3973 136.629 80.196 133.691 81.4353C130.784 82.6444 127.346 83.2492 123.379 83.2492C118.988 83.2492 115.111 82.5238 111.749 81.0726C108.387 79.6213 105.874 77.7322 104.208 75.4044C102.542 73.0765 101.558 70.6276 101.255 68.0581C100.952 65.458 100.801 60.0166 100.801 51.733V8.29102H119.926V63.3421C119.926 66.5466 120.093 68.6022 120.426 69.5089C120.79 70.386 121.501 70.8243 122.561 70.8243C123.773 70.8243 124.545 70.3405 124.878 69.373C125.242 68.3754 125.423 66.0475 125.423 62.3899V8.29102H144.549Z" fill="white"/>
<path fill-rule="evenodd" clip-rule="evenodd" d="M45 67.5C57.4263 67.5 67.5 57.4263 67.5 45C67.5 32.5736 57.4263 22.5 45 22.5C32.5736 22.5 22.5 32.5736 22.5 45C22.5 57.4263 32.5736 67.5 45 67.5ZM45 90C69.8526 90 90 69.8526 90 45C90 20.1472 69.8526 0 45 0C20.1472 0 0 20.1472 0 45C0 69.8526 20.1472 90 45 90Z" fill="white"/>
</g>
<defs>
<clipPath id="clip0_3903_10118">
<rect width="360.45" height="90" fill="white"/>
</clipPath>
</defs>
</svg>
