<svg width="333" height="90" viewBox="0 0 333 90" fill="none" xmlns="http://www.w3.org/2000/svg">
<g clip-path="url(#clip0_3903_10100)">
<mask id="mask0_3903_10100" style="mask-type:luminance" maskUnits="userSpaceOnUse" x="0" y="0" width="333" height="90">
<path d="M333 0H0V90H333V0Z" fill="white"/>
</mask>
<g mask="url(#mask0_3903_10100)">
<path fill-rule="evenodd" clip-rule="evenodd" d="M29.4034 35.4117C28.0892 32.6811 27.5033 29.6571 27.7025 26.6333C27.9018 23.6094 28.8794 20.6885 30.5406 18.1539C32.2017 15.6194 34.4899 13.5574 37.183 12.1681C39.8762 10.7788 42.8828 10.1093 45.9108 10.2247C48.9393 10.3401 51.8859 11.2365 54.4658 12.8268C57.0452 14.4171 59.1696 16.6473 60.633 19.3009C62.0964 21.9546 62.8492 24.9415 62.8177 27.9717C62.7862 31.0019 61.9717 33.9726 60.4534 36.5952L46.2694 61.2011L50.5219 68.5676L66.8479 40.2897C70.0704 34.566 70.9047 27.8023 69.1704 21.4669C67.4361 15.1316 63.2732 9.73606 57.5847 6.45165C51.8963 3.16726 45.1422 2.25911 38.7883 3.92439C32.4345 5.58967 26.994 9.69394 23.6479 15.3462C21.8709 18.3828 20.7643 21.7647 20.4026 25.2644C20.0409 28.7641 20.4324 32.3008 21.5509 35.6367C22.6884 35.4943 23.8335 35.4222 24.9799 35.4207L29.4034 35.4117ZM86.6209 49.7216C84.8578 46.627 82.4454 43.9506 79.5496 41.8772C76.6534 39.8038 73.3428 38.3826 69.8449 37.7111C69.4008 38.7723 68.8914 39.8048 68.3195 40.8026L66.0964 44.6501C69.1303 44.8365 72.0639 45.8066 74.6109 47.4653C77.1579 49.124 79.2315 51.4154 80.6287 54.1145C82.026 56.8141 82.6992 59.83 82.5826 62.8675C82.4661 65.9045 81.5643 68.8601 79.9646 71.4445C78.3648 74.0293 76.122 76.1546 73.4557 77.614C70.789 79.0729 67.7898 79.8154 64.7505 79.769C61.7112 79.7227 58.7358 78.8888 56.115 77.3494C53.4942 75.8095 51.3176 73.6162 49.7975 70.9841L35.6359 46.4591H27.1354L43.4164 74.6651C43.9762 75.6277 44.5969 76.5538 45.2749 77.4371L45.41 77.6126C47.7288 80.5975 50.7028 83.0086 54.103 84.6596C57.5028 86.3111 61.2369 87.1576 65.0164 87.1346C69.3945 87.1342 73.6952 85.9813 77.4864 83.792C81.2776 81.6028 84.4263 78.4541 86.6151 74.6629C88.8043 70.8712 89.9568 66.5705 89.9568 62.1925C89.9573 57.8144 88.8048 53.5133 86.6164 49.7216H86.6209ZM33.1007 77.7845C35.7604 76.3985 38.0211 74.3551 39.6677 71.8481L41.8232 75.6011C42.4198 76.6298 43.0843 77.6176 43.8122 78.5576C41.4825 81.2671 38.5916 83.4374 35.3397 84.9184C32.0879 86.3993 28.5529 87.1558 24.9797 87.1346C21.6762 87.1792 18.3968 86.5667 15.3318 85.3333C12.2669 84.0998 9.47758 82.2697 7.12579 79.949C4.774 77.6288 2.90663 74.8645 1.63206 71.8162C0.357506 68.7683 -0.298828 65.4973 -0.298828 62.1934C-0.298828 58.8895 0.357506 55.6189 1.63206 52.5706C2.90663 49.5227 4.774 46.7579 7.12579 44.4377C9.47758 42.1173 12.2669 40.2872 15.3318 39.0537C18.3968 37.8202 21.6762 37.2078 24.9797 37.2522H57.6L53.361 44.6142H24.9797C21.8944 44.6157 18.8639 45.4291 16.1924 46.9726C13.521 48.5161 11.3028 50.735 9.76054 53.4076C8.21835 56.0797 7.40651 59.1104 7.40651 62.1956C7.40655 65.2813 8.21844 68.312 9.76068 70.9841C11.2598 73.582 13.3988 75.7523 15.9741 77.2895C18.5493 78.8267 21.4751 79.679 24.473 79.7659C27.4708 79.8523 30.441 79.1701 33.1007 77.7845Z" fill="white"/>
<path d="M151.273 72.9096L149.977 66.7536L149.329 66.5106C148.843 66.8346 148.195 67.0776 147.466 67.0776C146.17 67.0776 145.036 66.3486 143.659 64.8096L131.995 51.1206L148.033 33.8676L147.79 33.3006H138.313L121.546 51.7686V19.0446L120.898 18.5586L112.717 19.7736V73.8006H121.546V60.3546L125.515 56.0616L136.936 69.8316C139.366 72.8286 142.444 74.7726 146.332 74.7726C148.357 74.7726 149.896 74.2866 150.949 73.5576L151.273 72.9096Z" fill="white"/>
<path fill-rule="evenodd" clip-rule="evenodd" d="M266.598 32.3296C278.91 32.3296 287.253 41.7256 287.253 53.5517C287.253 65.3777 278.91 74.7737 266.598 74.7737C260.847 74.7737 255.987 72.4247 252.504 68.8607V73.8017H244.566V19.8556L252.828 18.6406L253.395 19.0456V37.4326C256.797 34.2736 261.333 32.3296 266.598 32.3296ZM265.545 67.0787C273.159 67.0787 278.181 61.0847 278.181 53.5517C278.181 46.0997 273.159 40.0246 265.545 40.0246C258.417 40.0246 252.747 44.7226 252.747 53.5517C252.747 62.3807 258.417 67.0787 265.545 67.0787Z" fill="white"/>
<path fill-rule="evenodd" clip-rule="evenodd" d="M331.39 66.8341L332.686 72.8281L332.362 73.3951C331.228 74.2051 329.527 74.7721 327.502 74.7721C323.857 74.7721 321.184 72.8281 320.131 69.5071C316.648 72.8281 311.626 74.7721 306.28 74.7721C297.937 74.7721 290.242 70.1551 290.242 61.4071C290.242 52.4161 298.342 48.2851 308.305 48.2851C312.679 48.2851 316.081 49.0951 318.997 50.1481V47.8801C318.997 42.0481 313.732 39.2131 308.143 39.2131C303.526 39.2131 299.962 41.1571 297.127 43.9111H296.479L292.024 39.6991V39.0511C296.398 34.8391 301.987 32.3281 308.953 32.3281C317.701 32.3281 327.664 36.2161 327.664 47.8801V63.5131C327.664 65.7001 328.069 67.0771 329.527 67.0771C330.094 67.0771 330.499 66.8341 330.823 66.5911L331.39 66.8341ZM318.997 59.1391V56.1421C316.891 55.3321 313.408 54.2791 309.439 54.2791C303.04 54.2791 299.071 57.0331 299.071 61.4071C299.071 66.0241 303.445 68.2921 308.062 68.2921C313.651 68.2921 318.997 64.8091 318.997 59.1391Z" fill="white"/>
<path d="M236.599 49.4191C236.599 39.2941 230.038 32.3281 219.751 32.3281C214.324 32.3281 209.707 34.2721 206.548 37.4311C205.495 34.1911 202.984 32.3281 199.258 32.3281C197.152 32.3281 195.37 32.8951 194.236 33.7051L193.912 34.2721L195.208 40.2661L195.775 40.5091C196.099 40.2661 196.504 40.0231 197.071 40.0231C198.61 40.0231 198.934 41.4001 198.934 43.5871V73.8001H207.844V50.1481C207.844 43.9921 211.975 39.9421 218.05 39.9421C224.125 39.9421 227.77 43.9921 227.77 50.1481V73.8001H236.599V49.4191Z" fill="white"/>
<path fill-rule="evenodd" clip-rule="evenodd" d="M191.709 66.8341L193.005 72.8281L192.681 73.3951C191.547 74.2051 189.846 74.7721 187.821 74.7721C184.176 74.7721 181.503 72.8281 180.45 69.5071C176.967 72.8281 171.945 74.7721 166.599 74.7721C158.256 74.7721 150.561 70.1551 150.561 61.4071C150.561 52.4161 158.661 48.2851 168.624 48.2851C172.998 48.2851 176.4 49.0951 179.316 50.1481V47.8801C179.316 42.0481 174.051 39.2131 168.462 39.2131C163.845 39.2131 160.281 41.1571 157.446 43.9111H156.798L152.343 39.6991V39.0511C156.717 34.8391 162.306 32.3281 169.272 32.3281C178.02 32.3281 187.983 36.2161 187.983 47.8801V63.5131C187.983 65.7001 188.388 67.0771 189.846 67.0771C190.413 67.0771 190.818 66.8341 191.142 66.5911L191.709 66.8341ZM179.316 59.1391V56.1421C177.21 55.3321 173.727 54.2791 169.758 54.2791C163.359 54.2791 159.39 57.0331 159.39 61.4071C159.39 66.0241 163.764 68.2921 168.381 68.2921C173.97 68.2921 179.316 64.8091 179.316 59.1391Z" fill="white"/>
</g>
</g>
<defs>
<clipPath id="clip0_3903_10100">
<rect width="333" height="90" fill="white"/>
</clipPath>
</defs>
</svg>
