<svg width="161" height="40" viewBox="0 0 161 40" fill="none" xmlns="http://www.w3.org/2000/svg">
<path d="M155.135 3.68359L160.001 36.3132H151.298L150.874 30.4484H147.826L147.321 36.3132H138.518L142.839 3.68359H155.135ZM150.632 24.664C150.201 20.9692 149.771 16.4076 149.34 10.9794C148.478 17.2137 147.94 21.7754 147.725 24.664H150.632Z" fill="#0E1011"/>
<path d="M137.457 3.68359V36.3132H128.957V3.68359H137.457Z" fill="#0E1011"/>
<path d="M125.979 13.5608H118.084V11.1423C118.084 10.0136 117.983 9.2948 117.781 8.98578C117.579 8.67674 117.243 8.52222 116.772 8.52222C116.26 8.52222 115.87 8.73048 115.601 9.147C115.345 9.56352 115.217 10.195 115.217 11.0415C115.217 12.1298 115.365 12.9494 115.661 13.5003C115.944 14.0512 116.745 14.7163 118.064 15.4956C121.846 17.7394 124.229 19.5801 125.211 21.0178C126.194 22.4554 126.685 24.7732 126.685 27.971C126.685 30.2954 126.409 32.0084 125.857 33.1102C125.319 34.212 124.269 35.1392 122.708 35.8916C121.146 36.6306 119.329 37 117.256 37C114.981 37 113.036 36.57 111.421 35.7102C109.819 34.8502 108.769 33.7552 108.271 32.425C107.773 31.0948 107.524 29.207 107.524 26.7618V24.6254H115.419V28.5958C115.419 29.8184 115.526 30.6044 115.742 30.9538C115.971 31.3032 116.368 31.4778 116.933 31.4778C117.498 31.4778 117.916 31.256 118.185 30.8126C118.468 30.3692 118.609 29.711 118.609 28.8376C118.609 26.9162 118.346 25.66 117.821 25.0688C117.283 24.4776 115.957 23.49 113.844 22.1062C111.731 20.7088 110.331 19.6943 109.644 19.0628C108.958 18.4313 108.386 17.558 107.928 16.4428C107.484 15.3276 107.262 13.9034 107.262 12.1701C107.262 9.67102 107.578 7.8437 108.211 6.6882C108.857 5.5327 109.893 4.63248 111.32 3.98756C112.747 3.32918 114.47 3 116.489 3C118.696 3 120.574 3.35606 122.122 4.06816C123.684 4.78028 124.713 5.6805 125.211 6.76882C125.723 7.8437 125.979 9.67774 125.979 12.2709V13.5608Z" fill="#0E1011"/>
<path d="M105.191 22.7914C105.191 26.0698 105.11 28.3942 104.949 29.7646C104.801 31.1218 104.316 32.3646 103.495 33.4932C102.687 34.6218 101.59 35.4884 100.204 36.093C98.8176 36.6976 97.2022 37 95.3582 37C93.6084 37 92.0334 36.7178 90.6336 36.1536C89.2472 35.5758 88.13 34.7158 87.282 33.5738C86.434 32.4318 85.9292 31.1888 85.7676 29.8452C85.606 28.5016 85.5254 26.1504 85.5254 22.7914V17.2087C85.5254 13.9303 85.5994 11.6125 85.7474 10.2555C85.909 8.885 86.3936 7.63544 87.2012 6.50682C88.0222 5.37818 89.126 4.51156 90.5124 3.90694C91.8988 3.30232 93.5142 3 95.3582 3C97.108 3 98.6762 3.28888 100.063 3.86662C101.463 4.43094 102.586 5.28414 103.434 6.4262C104.282 7.56826 104.787 8.8111 104.949 10.1547C105.11 11.4983 105.191 13.8496 105.191 17.2087V22.7914ZM96.6908 12.0694C96.6908 10.5511 96.6032 9.58368 96.4284 9.16716C96.2668 8.7372 95.9236 8.52222 95.3986 8.52222C94.9544 8.52222 94.6112 8.6969 94.3688 9.04624C94.14 9.38214 94.0256 10.3898 94.0256 12.0694V27.3058C94.0256 29.2004 94.0996 30.3692 94.2478 30.8126C94.4092 31.256 94.7726 31.4778 95.338 31.4778C95.9168 31.4778 96.287 31.2224 96.4484 30.712C96.61 30.2014 96.6908 28.9854 96.6908 27.064V12.0694Z" fill="#0E1011"/>
<path d="M84.2434 3.68359V10.2135H79.1958V36.3132H70.6956V10.2135H65.668V3.68359H84.2434Z" fill="#0E1011"/>
<path d="M64.2444 3.68359V25.4904C64.2444 27.9626 64.1636 29.7026 64.0022 30.7104C63.8406 31.7046 63.3628 32.7324 62.5686 33.7938C61.7744 34.842 60.7246 35.6414 59.4188 36.1922C58.1266 36.7296 56.5988 36.9984 54.8356 36.9984C52.8838 36.9984 51.1608 36.676 49.6668 36.031C48.1726 35.386 47.0554 34.5464 46.3152 33.5118C45.5748 32.4772 45.1374 31.3888 45.0028 30.2468C44.8682 29.0912 44.8008 26.6728 44.8008 22.9912V3.68359H53.301V28.1508C53.301 29.575 53.3752 30.4886 53.5232 30.8916C53.6848 31.2814 54.001 31.4762 54.4722 31.4762C55.0106 31.4762 55.3538 31.2612 55.5018 30.8312C55.6634 30.3878 55.7442 29.3532 55.7442 27.7276V3.68359H64.2444Z" fill="#0E1011"/>
<path fill-rule="evenodd" clip-rule="evenodd" d="M20 30C25.5228 30 30 25.5228 30 20C30 14.4772 25.5228 10 20 10C14.4772 10 10 14.4772 10 20C10 25.5228 14.4772 30 20 30ZM20 40C31.0456 40 40 31.0456 40 20C40 8.9543 31.0456 0 20 0C8.9543 0 0 8.9543 0 20C0 31.0456 8.9543 40 20 40Z" fill="#0E1011"/>
</svg>
