<svg width="340" height="80" viewBox="0 0 340 80" fill="none" xmlns="http://www.w3.org/2000/svg">
<mask id="mask0_3903_10133" style="mask-type:luminance" maskUnits="userSpaceOnUse" x="0" y="0" width="340" height="80">
<path d="M339.2 0H0V80H339.2V0Z" fill="white"/>
</mask>
<g mask="url(#mask0_3903_10133)">
<path d="M40.216 0C16.332 0 0 15.2 0 40.216C0 64.1 16.332 80 40.216 80C64.1 80 80 64.1 80 40.216C80 15.2 64.1 0 40.216 0ZM63.972 63.972C62.4152 65.5224 60.6788 66.8812 58.8 68.02V35.2L51.6 31.2V71.2C48.9944 71.9764 46.312 72.466 43.6 72.66V20.06L36.4 16.06V72.636C33.8251 72.4236 31.2786 71.9488 28.8 71.22V33.6L21.6 37.6V68.076C12.516 62.664 7.2 52.876 7.2 40.2C7.2 30.028 10.308 21.608 16.192 15.848C21.976 10.196 30.284 7.2 40.216 7.2C50.148 7.2 58.316 10.184 64 15.824C69.764 21.56 72.8 29.996 72.8 40.224C72.8 50 69.748 58.2 63.972 63.972Z" fill="white"/>
<path d="M250.381 22.4004H258.373L258.301 58.4003H250.309L250.381 22.4004Z" fill="white"/>
<path d="M254.34 15.5609C253.044 15.5609 251.916 15.1049 250.956 14.1929C250.044 13.2329 249.588 12.1049 249.588 10.8089C249.588 9.51291 250.044 8.40891 250.956 7.49691C251.916 6.58491 253.044 6.12891 254.34 6.12891C255.636 6.12891 256.74 6.58491 257.652 7.49691C258.612 8.40891 259.092 9.51291 259.092 10.8089C259.092 12.1049 258.612 13.2329 257.652 14.1929C256.74 15.1049 255.636 15.5609 254.34 15.5609Z" fill="white"/>
<path d="M266.363 58.3991H274.427V39.6072C274.427 36.1992 275.171 33.5832 276.659 31.7592C278.147 29.9352 280.235 29.0472 282.923 29.0952C284.507 29.0952 285.875 29.4072 287.027 30.0312C288.227 30.6552 289.139 31.7592 289.763 33.3432C290.435 34.8792 290.771 37.0872 290.771 39.9672V58.3991H298.835V37.8072C298.835 32.2872 297.635 28.2072 295.235 25.5672C292.883 22.8792 289.523 21.5352 285.155 21.5352C282.323 21.5352 279.875 22.2552 277.811 23.6952C276.426 24.6294 275.257 25.8663 274.304 27.4058L273.923 22.3992H266.363V58.3991Z" fill="white"/>
<path fill-rule="evenodd" clip-rule="evenodd" d="M312.261 56.8871C314.997 58.4711 318.117 59.2631 321.621 59.2631C324.357 59.2631 326.781 58.8791 328.893 58.1111C331.053 57.3431 332.901 56.2391 334.437 54.7991C336.021 53.3591 337.317 51.6791 338.325 49.7591L330.909 46.5911C330.141 48.1271 329.061 49.3991 327.669 50.4071C326.277 51.3671 324.501 51.8471 322.341 51.8471C320.373 51.8471 318.573 51.4151 316.941 50.5511C315.357 49.6391 314.085 48.3431 313.125 46.6631C312.444 45.4099 312.018 43.9699 311.845 42.3431H339.045C339.045 38.0232 338.277 34.3032 336.741 31.1832C335.205 28.0632 333.141 25.6872 330.549 24.0552C328.005 22.3752 325.125 21.5352 321.909 21.5352C318.357 21.5352 315.189 22.3512 312.405 23.9832C309.669 25.5672 307.509 27.7752 305.925 30.6072C304.341 33.4392 303.549 36.7032 303.549 40.3991C303.549 44.0951 304.317 47.3591 305.853 50.1911C307.437 53.0231 309.573 55.2551 312.261 56.8871ZM330.177 35.9352C330.053 35.4804 329.913 35.0484 329.757 34.6392C329.037 32.6232 327.981 31.1352 326.589 30.1752C325.245 29.1672 323.589 28.6632 321.621 28.6632C319.557 28.6632 317.781 29.1192 316.293 30.0312C314.805 30.9432 313.677 32.2872 312.909 34.0632C312.654 34.6369 312.441 35.2609 312.271 35.9352H330.177Z" fill="white"/>
<path d="M234.229 8V58.4H242.293V8H234.229Z" fill="white"/>
<path fill-rule="evenodd" clip-rule="evenodd" d="M219.121 58.4L218.832 53.0256C217.837 54.6068 216.613 55.9184 215.161 56.96C213.001 58.496 210.409 59.264 207.385 59.264C204.121 59.264 201.265 58.496 198.817 56.96C196.417 55.376 194.521 53.168 193.129 50.336C191.785 47.504 191.113 44.192 191.113 40.4C191.113 36.56 191.785 33.248 193.129 30.464C194.521 27.632 196.417 25.448 198.817 23.912C201.265 22.328 204.121 21.536 207.385 21.536C210.409 21.536 213.001 22.328 215.161 23.912C216.579 24.8982 217.779 26.1515 218.761 27.672V8H226.753V58.4H219.121ZM217.537 46.376C218.353 44.648 218.761 42.656 218.761 40.4C218.761 38.144 218.353 36.152 217.537 34.424C216.769 32.696 215.665 31.352 214.225 30.392C212.833 29.432 211.201 28.952 209.329 28.952C207.409 28.952 205.705 29.432 204.217 30.392C202.729 31.352 201.553 32.696 200.689 34.424C199.873 36.152 199.441 38.144 199.393 40.4C199.441 42.656 199.873 44.648 200.689 46.376C201.553 48.104 202.729 49.472 204.217 50.48C205.753 51.44 207.481 51.92 209.401 51.92C211.225 51.92 212.833 51.44 214.225 50.48C215.665 49.472 216.769 48.104 217.537 46.376Z" fill="white"/>
<path d="M177.553 8V58.4H185.617V8H177.553Z" fill="white"/>
<path fill-rule="evenodd" clip-rule="evenodd" d="M153.717 59.2631C150.117 59.2631 146.901 58.4711 144.069 56.8871C141.285 55.2551 139.101 53.0231 137.517 50.1911C135.933 47.3591 135.141 44.0951 135.141 40.3991C135.141 36.7032 135.909 33.4392 137.445 30.6072C139.029 27.7752 141.213 25.5672 143.997 23.9832C146.781 22.3512 149.973 21.5352 153.573 21.5352C157.173 21.5352 160.365 22.3512 163.149 23.9832C165.933 25.5672 168.093 27.7752 169.629 30.6072C171.213 33.4392 172.005 36.7032 172.005 40.3991C172.005 44.0951 171.237 47.3591 169.701 50.1911C168.165 53.0231 166.005 55.2551 163.221 56.8871C160.437 58.4711 157.269 59.2631 153.717 59.2631ZM153.717 51.8471C155.685 51.8471 157.437 51.3671 158.973 50.4071C160.509 49.3991 161.709 48.0551 162.573 46.3751C163.437 44.6471 163.869 42.6551 163.869 40.3991C163.869 38.1432 163.413 36.1752 162.501 34.4952C161.637 32.7672 160.437 31.4232 158.901 30.4632C157.365 29.4552 155.589 28.9512 153.573 28.9512C151.557 28.9512 149.781 29.4312 148.245 30.3912C146.709 31.3512 145.509 32.6952 144.645 34.4232C143.781 36.1512 143.349 38.1432 143.349 40.3991C143.349 42.6551 143.781 44.6471 144.645 46.3751C145.557 48.0551 146.781 49.3991 148.317 50.4071C149.901 51.3671 151.701 51.8471 153.717 51.8471Z" fill="white"/>
<path fill-rule="evenodd" clip-rule="evenodd" d="M104.275 73.0871C106.339 73.5191 108.643 73.7351 111.187 73.7351C114.883 73.7351 118.123 72.9911 120.907 71.5031C123.691 70.0631 125.851 67.9031 127.387 65.0231C128.923 62.1911 129.691 58.7351 129.691 54.6551V22.3992H121.627V28.2043C120.552 26.4162 119.208 24.9612 117.595 23.8392C115.435 22.3032 112.891 21.5352 109.963 21.5352C106.699 21.5352 103.843 22.3032 101.395 23.8392C98.9954 25.3752 97.0994 27.5112 95.7074 30.2472C94.3634 32.9832 93.6914 36.2232 93.6914 39.9672C93.6914 43.4711 94.3634 46.5671 95.7074 49.2551C97.0994 51.8951 98.9954 53.9591 101.395 55.4471C103.843 56.9351 106.699 57.6791 109.963 57.6791C112.891 57.6791 115.435 56.9591 117.595 55.5191C119.208 54.4323 120.552 53.0379 121.627 51.3359V54.8711C121.627 57.5591 121.171 59.7671 120.259 61.4951C119.347 63.2231 118.075 64.4951 116.443 65.3111C114.811 66.1751 112.963 66.6071 110.899 66.6071C108.979 66.6071 107.251 66.4151 105.715 66.0311C104.179 65.6471 102.835 65.1911 101.683 64.6631C100.579 64.1831 99.6914 63.7751 99.0194 63.4391L95.9234 69.9191C96.6914 70.4471 97.7714 70.9991 99.1634 71.5751C100.555 72.1511 102.259 72.6551 104.275 73.0871ZM116.947 49.3991C115.603 50.3591 114.019 50.8391 112.195 50.8391C110.275 50.8391 108.571 50.3591 107.083 49.3991C105.595 48.4391 104.419 47.1431 103.555 45.5111C102.739 43.8311 102.331 41.9111 102.331 39.7512C102.331 37.5432 102.739 35.6232 103.555 33.9912C104.419 32.3112 105.571 31.0152 107.011 30.1032C108.499 29.1432 110.203 28.6632 112.123 28.6632C113.947 28.6632 115.555 29.1432 116.947 30.1032C118.339 31.0152 119.419 32.3112 120.187 33.9912C120.955 35.6232 121.339 37.5432 121.339 39.7512C121.339 41.9111 120.955 43.8311 120.187 45.5111C119.419 47.1431 118.339 48.4391 116.947 49.3991Z" fill="white"/>
</g>
</svg>
