<svg width="179" height="40" viewBox="0 0 179 40" fill="none" xmlns="http://www.w3.org/2000/svg">
<g clip-path="url(#clip0_3903_10036)">
<mask id="mask0_3903_10036" style="mask-type:luminance" maskUnits="userSpaceOnUse" x="0" y="0" width="179" height="40">
<path d="M179 0H0V40H179V0Z" fill="white"/>
</mask>
<g mask="url(#mask0_3903_10036)">
<path d="M16.1296 39.8984H13.0723V-0.101562L16.1296 2.44622V39.8984Z" fill="#0E1011"/>
<path d="M6.44727 39.8994H9.50459V7.65234L6.44727 10.2001V39.8994Z" fill="#0E1011"/>
<path d="M3.13545 39.8967H0.078125V17.8407L3.13545 15.293V39.8967Z" fill="#0E1011"/>
<path d="M29.1219 39.8967H26.0645V15.293L29.1219 17.8407V39.8967Z" fill="#0E1011"/>
<path d="M19.6953 39.8994H22.7526V10.2001L19.6953 7.65234V39.8994Z" fill="#0E1011"/>
<path fill-rule="evenodd" clip-rule="evenodd" d="M62.3886 28.626V27.2508H58.9892V28.565C58.9892 31.4986 59.9386 34.1192 64.0288 34.1192C68.1192 34.1192 69.208 31.1626 69.208 28.0072C69.208 24.2636 68.203 22.835 64.9222 20.3672C62.9958 18.9385 62.7026 18.0752 62.7026 16.6007C62.7026 15.1262 62.961 14.1559 64.0986 14.1559C65.2364 14.1559 65.4946 15.1185 65.4946 16.6465V17.7391H68.845V16.5472C68.845 14.133 68.1332 11.1992 64.1754 11.1992C60.2178 11.1992 59.3452 14.1559 59.3452 17.082C59.3452 20.3748 60.6086 21.5972 62.961 23.4766C65.3132 25.3562 65.8228 26.0972 65.8228 28.4886C65.8228 29.9324 65.4458 31.2008 64.1614 31.2008C62.8772 31.2008 62.3886 30.2762 62.3886 28.626ZM42.6284 33.7982L43.3892 27.8542H46.7746L47.64 33.7982H51.172L47.5074 11.5581H42.733L39.2012 33.7982H42.6284ZM45.1342 14.8204C45.3854 17.334 45.8602 20.9172 46.3626 24.699H43.836C43.9036 24.1858 43.9768 23.6368 44.0524 23.0686L44.0526 23.068C44.462 19.998 44.946 16.3676 45.0226 14.8204H45.1342ZM88.061 33.7982H85.4226C85.3266 33.2484 85.266 32.6918 85.241 32.1326C84.6338 33.6148 83.3564 34.1268 81.9464 34.1268C78.7216 34.1268 77.6816 31.7584 77.6816 28.0148V17.5403C77.6816 13.9113 79.0776 11.2373 82.8818 11.2373C87.4816 11.2373 87.9702 14.6677 87.9702 17.059V17.7772H84.571V16.8909C84.571 15.7144 84.4034 14.3621 82.8608 14.3621C81.6254 14.3621 81.1018 15.2254 81.1018 17.0055V28.3814C81.1018 30.1616 81.6114 31.086 82.833 31.086C84.2988 31.086 84.6548 29.8484 84.6548 27.5564V24.3094H82.7562V21.3602H88.061V33.7982ZM99.8578 33.7982L100.626 27.8542H103.983L104.848 33.7982H108.366L104.702 11.5581H99.9276L96.4376 33.7982H99.8578ZM102.371 14.8204C102.622 17.3339 103.096 20.917 103.599 24.6988H101.044C101.112 24.1856 101.185 23.6364 101.261 23.068V23.0674L101.261 23.067C101.67 19.9971 102.154 16.3673 102.231 14.8204H102.371ZM119.925 23.8584V33.7904H116.547V11.5581H121.223C124.56 11.5581 126.528 12.918 126.528 16.9061V17.7541C126.528 21.1692 125.132 22.0402 124.301 22.3916C125.579 23.0028 126.305 23.9196 126.305 26.9756C126.249 29.2546 126.316 31.5354 126.507 33.8058H123.24C122.993 32.6514 123.006 29.7654 123.015 27.961C123.016 27.6756 123.017 27.4174 123.017 27.1972C123.017 24.485 122.668 23.8662 120.707 23.8662L119.925 23.8584ZM119.925 21.024H120.7C122.486 21.024 123.143 20.3364 123.143 17.9222V17.1582C123.143 15.4392 122.794 14.3925 120.881 14.3925H119.925V21.024ZM140.286 11.5581H135.602V33.7982H140.286C145.493 33.7982 146.065 30.0622 146.065 26.6624V18.1361C146.065 14.0029 144.935 11.5581 140.286 11.5581ZM140.098 30.8796H139.016V14.5071H140.077C142.31 14.5071 142.659 15.8212 142.659 17.8611V27.1284C142.659 29.428 142.324 30.8796 140.098 30.8796ZM158.559 11.5581V33.7982H155.181V11.5581H158.559ZM170.272 33.7982L171.039 27.8542H174.411L175.269 33.7982H178.801L175.137 11.5581H170.362L166.83 33.7982H170.272ZM173.83 23.356C173.888 23.7998 173.947 24.248 174.006 24.6988H171.465C171.507 24.3846 171.551 24.0568 171.597 23.7194C172.025 20.5298 172.57 16.4786 172.652 14.8204H172.777C172.999 17.0342 173.399 20.0778 173.83 23.356Z" fill="#0E1011"/>
</g>
</g>
<defs>
<clipPath id="clip0_3903_10036">
<rect width="179" height="40" fill="white"/>
</clipPath>
</defs>
</svg>
