<svg width="144" height="40" viewBox="0 0 144 40" fill="none" xmlns="http://www.w3.org/2000/svg">
<g clip-path="url(#clip0_3903_10057)">
<mask id="mask0_3903_10057" style="mask-type:luminance" maskUnits="userSpaceOnUse" x="0" y="0" width="144" height="40">
<path d="M143.2 0H0V40H143.2V0Z" fill="white"/>
</mask>
<g mask="url(#mask0_3903_10057)">
<path d="M21.1676 33.9512C23.7504 33.7326 26.2216 32.8016 28.3064 31.2616L32.1824 35.8616C29.2208 38.1362 25.6814 39.5362 21.9652 39.9032C18.2489 40.2702 14.5041 39.5892 11.1549 37.9378C7.80557 36.2862 4.98557 33.73 3.01415 30.5584C1.04271 27.3868 -0.00141157 23.7268 1.43225e-06 19.9924C0.00141443 16.2581 1.0483 12.5988 3.02213 9.42872C4.99597 6.25868 7.81791 3.70456 11.1684 2.05556C14.5189 0.406559 18.2642 -0.271455 21.9802 0.0982821C25.6962 0.468019 29.2344 1.87074 32.1944 4.14762L28.3164 8.74762C26.233 7.20574 23.7626 6.27248 21.18 6.05178C18.5976 5.83106 16.0046 6.33158 13.6898 7.49756C11.375 8.66354 9.42935 10.4492 8.06951 12.6557C6.70965 14.8622 5.98903 17.4028 5.98787 19.9947C5.98673 22.5866 6.70509 25.1278 8.06299 27.3356C9.42087 29.5432 11.365 31.3306 13.6787 32.4986C15.9924 33.6668 18.585 34.1696 21.1676 33.9512Z" fill="#0E1011"/>
<path d="M33.5576 34.7008L29.6816 30.1008H29.6876C31.053 28.7968 32.14 27.2294 32.8826 25.4934C33.625 23.7574 34.008 21.889 34.008 20.0008C34.008 18.1127 33.625 16.2441 32.8826 14.5082C32.14 12.7722 31.053 11.2048 29.6876 9.90078L33.5676 5.30078C35.597 7.17432 37.2164 9.4479 38.3238 11.9783C39.431 14.5086 40.0022 17.2409 40.0012 20.003C40.0004 22.765 39.4274 25.497 38.3184 28.0266C37.2094 30.5562 35.5884 32.8286 33.5576 34.7008Z" fill="#0E1011"/>
<path d="M113.293 1.20312V33.3231H117.121V1.20312H113.293Z" fill="#0E1011"/>
<path fill-rule="evenodd" clip-rule="evenodd" d="M132.29 30.286C128.198 30.286 125.074 28.042 124.326 24.082H142.762C142.85 23.51 142.894 22.938 142.894 22.366C142.894 16.206 138.582 10.75 131.938 10.75C125.074 10.75 120.41 15.81 120.41 22.322C120.41 28.922 125.118 33.894 132.202 33.894C136.602 33.894 139.946 31.914 141.882 28.922L138.626 27.074C137.526 28.878 135.326 30.286 132.29 30.286ZM124.326 20.738C124.942 16.91 127.802 14.358 131.938 14.358C135.238 14.358 138.362 16.382 139.022 20.738H124.326Z" fill="#0E1011"/>
<path d="M100.933 33.894C94.2893 33.894 89.3613 28.834 89.3613 22.322C89.3613 15.81 94.2893 10.75 100.933 10.75C105.289 10.75 108.985 13.038 110.657 16.514L107.445 18.362C106.345 16.03 103.881 14.49 100.933 14.49C96.5333 14.49 93.1893 17.878 93.1893 22.322C93.1893 26.722 96.5333 30.11 100.933 30.11C103.925 30.11 106.345 28.57 107.577 26.282L110.833 28.174C108.985 31.606 105.245 33.894 100.933 33.894Z" fill="#0E1011"/>
<path d="M89.3717 10.9258C86.5997 10.9258 83.9157 11.9378 82.5077 15.0178V11.3218H78.6797V33.3218H82.5077V21.6618C82.5077 16.4698 86.0717 14.7978 89.3717 14.9298V10.9258Z" fill="#0E1011"/>
<path d="M72.2679 7.31597C70.8159 7.31597 69.6719 6.17197 69.6719 4.76397C69.6719 3.35597 70.8159 2.16797 72.2679 2.16797C73.6759 2.16797 74.8199 3.35597 74.8199 4.76397C74.8199 6.17197 73.6759 7.31597 72.2679 7.31597Z" fill="#0E1011"/>
<path d="M70.332 33.3203V11.3203H74.16V33.3203H70.332Z" fill="#0E1011"/>
<path d="M46.4004 22.322C46.4004 28.834 51.3284 33.894 57.9724 33.894C62.2844 33.894 66.0244 31.606 67.8724 28.174L64.6164 26.282C63.3844 28.57 60.9644 30.11 57.9724 30.11C53.5724 30.11 50.2284 26.722 50.2284 22.322C50.2284 17.878 53.5724 14.49 57.9724 14.49C60.9204 14.49 63.3844 16.03 64.4844 18.362L67.6964 16.514C66.0244 13.038 62.3284 10.75 57.9724 10.75C51.3284 10.75 46.4004 15.81 46.4004 22.322Z" fill="#0E1011"/>
</g>
</g>
<defs>
<clipPath id="clip0_3903_10057">
<rect width="143.2" height="40" fill="white"/>
</clipPath>
</defs>
</svg>
