<svg width="360" height="90" viewBox="0 0 360 90" fill="none" xmlns="http://www.w3.org/2000/svg">
<g clip-path="url(#clip0_3903_10084)">
<mask id="mask0_3903_10084" style="mask-type:luminance" maskUnits="userSpaceOnUse" x="0" y="0" width="360" height="90">
<path d="M359.55 0H0V90H359.55V0Z" fill="white"/>
</mask>
<g mask="url(#mask0_3903_10084)">
<path fill-rule="evenodd" clip-rule="evenodd" d="M51.8823 0.585938L69.0872 20.9826L73.1003 58.6734L42.7326 90.586L7.40039 58.5685L25.1909 13.3018L51.8823 0.585938ZM26.7338 16.7769L40.9246 31.7681L26.412 52.8175L11.2022 56.296L26.7338 16.7769ZM11.8417 58.9344L38.8131 83.3757L26.4433 55.5954L11.8417 58.9344ZM29.4054 55.5918L43.076 86.2935L68.7798 59.2822L29.4054 55.5918ZM69.9642 54.7764L66.6301 23.4679L45.1688 32.0889L69.9642 54.7764ZM43.0119 30.0307L65.5407 20.981L51.1619 3.93473L28.5201 14.7215L43.0119 30.0307ZM42.8949 33.6828L67.7911 56.4625L29.6537 52.8882L42.8949 33.6828Z" fill="white"/>
<path d="M180.91 71.3152C173.287 71.3152 166.852 68.8402 161.704 63.7912C156.556 58.7422 153.982 52.4062 153.982 44.8822C153.982 37.3582 156.556 31.1212 161.704 26.0722C166.852 21.0232 173.287 18.4492 180.91 18.4492C187.345 18.4492 192.889 20.3302 197.74 24.0922C202.591 27.7552 205.66 32.6062 206.947 38.4472H197.938C195.265 31.4182 188.83 26.6662 180.91 26.6662C175.663 26.6662 171.406 28.4482 167.941 31.9132C164.476 35.3782 162.793 39.6352 162.793 44.8822C162.793 50.1292 164.476 54.4852 167.941 57.9502C171.406 61.4152 175.663 63.0982 180.91 63.0982C188.83 63.0982 195.265 58.3462 197.938 51.3172H206.947C205.66 57.1582 202.591 62.0092 197.74 65.7712C192.889 69.4342 187.345 71.3152 180.91 71.3152Z" fill="white"/>
<path d="M291.028 23.6962C287.563 20.2312 283.009 18.4492 277.366 18.4492C268.951 18.4492 262.813 21.9142 259.15 28.9432C256.279 22.3102 249.943 18.4492 241.924 18.4492C234.598 18.4492 229.054 21.2212 225.391 26.8642V19.6372H216.877V70.1272H225.391V40.1302C225.391 32.1112 230.935 26.6662 239.251 26.6662C247.171 26.6662 252.319 31.9132 252.319 39.9322V70.1272H260.833V40.1302C260.833 32.1112 266.377 26.6662 274.693 26.6662C282.613 26.6662 287.761 31.9132 287.761 39.9322V70.1272H296.275V37.5562C296.275 31.7152 294.493 27.1612 291.028 23.6962Z" fill="white"/>
<path fill-rule="evenodd" clip-rule="evenodd" d="M359.206 48.1492V48.1483C359.297 46.9752 359.381 45.8866 359.381 44.8822C359.381 37.3582 356.807 31.1212 351.659 26.0722C346.61 21.0232 340.175 18.4492 332.552 18.4492C324.929 18.4492 318.494 21.0232 313.346 26.0722C308.297 31.1212 305.723 37.3582 305.723 44.8822C305.723 52.4062 308.297 58.7422 313.346 63.7912C318.494 68.8402 324.929 71.3152 332.552 71.3152C344.828 71.3152 354.728 64.3852 358.391 53.9902H348.986C346.313 59.6332 340.076 63.4942 332.552 63.4942C327.998 63.4942 324.038 62.1082 320.771 59.3362C317.504 56.5642 315.524 52.9012 314.831 48.4462H359.183L359.206 48.1492ZM350.273 40.8232H314.93C316.613 32.1112 323.543 26.2702 332.552 26.2702C341.561 26.2702 348.689 32.2102 350.273 40.8232Z" fill="white"/>
<path fill-rule="evenodd" clip-rule="evenodd" d="M146.628 19.6406H108.216V27.8577H138.114V37.7577H123.066C117.819 37.7577 113.463 39.3417 109.998 42.6087C106.533 45.7768 104.85 49.7368 104.85 54.4888C104.85 59.3398 106.533 63.2998 109.998 66.5668C113.463 69.7348 117.819 71.3188 123.066 71.3188C129.897 71.3188 135.837 68.3488 139.005 63.5968V70.1308H146.628V19.6406ZM138.114 53.5978C138.114 59.5378 132.471 63.5968 124.155 63.5968C118.116 63.5968 113.661 59.7358 113.661 54.4888C113.661 49.3408 118.116 45.4798 124.155 45.4798H138.114V53.5978Z" fill="white"/>
</g>
</g>
<defs>
<clipPath id="clip0_3903_10084">
<rect width="359.55" height="90" fill="white"/>
</clipPath>
</defs>
</svg>
