<svg width="170" height="40" viewBox="0 0 170 40" fill="none" xmlns="http://www.w3.org/2000/svg">
<g clip-path="url(#clip0_3903_10019)">
<mask id="mask0_3903_10019" style="mask-type:luminance" maskUnits="userSpaceOnUse" x="0" y="0" width="170" height="40">
<path d="M169.6 0H0V40H169.6V0Z" fill="white"/>
</mask>
<g mask="url(#mask0_3903_10019)">
<path d="M20.108 0C8.166 0 0 7.6 0 20.108C0 32.05 8.166 40 20.108 40C32.05 40 40 32.05 40 20.108C40 7.6 32.05 0 20.108 0ZM31.986 31.986C31.2076 32.7612 30.3394 33.4406 29.4 34.01V17.6L25.8 15.6V35.6C24.4972 35.9882 23.156 36.233 21.8 36.33V10.03L18.2 8.03V36.318C16.9126 36.2118 15.6393 35.9744 14.4 35.61V16.8L10.8 18.8V34.038C6.258 31.332 3.6 26.438 3.6 20.1C3.6 15.014 5.154 10.804 8.096 7.924C10.988 5.098 15.142 3.6 20.108 3.6C25.074 3.6 29.158 5.092 32 7.912C34.882 10.78 36.4 14.998 36.4 20.112C36.4 25 34.874 29.1 31.986 31.986Z" fill="#0E1011"/>
<path d="M125.19 11.1992H129.186L129.15 29.1992H125.154L125.19 11.1992Z" fill="#0E1011"/>
<path d="M127.171 7.7785C126.523 7.7785 125.959 7.5505 125.479 7.0945C125.023 6.6145 124.795 6.0505 124.795 5.4025C124.795 4.7545 125.023 4.2025 125.479 3.7465C125.959 3.2905 126.523 3.0625 127.171 3.0625C127.819 3.0625 128.371 3.2905 128.827 3.7465C129.307 4.2025 129.547 4.7545 129.547 5.4025C129.547 6.0505 129.307 6.6145 128.827 7.0945C128.371 7.5505 127.819 7.7785 127.171 7.7785Z" fill="#0E1011"/>
<path d="M133.182 29.2015H137.214V19.8055C137.214 18.1015 137.586 16.7935 138.33 15.8815C139.074 14.9695 140.118 14.5255 141.462 14.5495C142.254 14.5495 142.938 14.7055 143.514 15.0175C144.114 15.3295 144.57 15.8815 144.882 16.6735C145.218 17.4415 145.386 18.5455 145.386 19.9855V29.2015H149.418V18.9055C149.418 16.1455 148.818 14.1055 147.618 12.7855C146.442 11.4415 144.762 10.7695 142.578 10.7695C141.162 10.7695 139.938 11.1295 138.906 11.8495C138.213 12.3166 137.629 12.9351 137.152 13.7049L136.962 11.2015H133.182V29.2015Z" fill="#0E1011"/>
<path fill-rule="evenodd" clip-rule="evenodd" d="M156.129 28.4455C157.497 29.2375 159.057 29.6335 160.809 29.6335C162.177 29.6335 163.389 29.4415 164.445 29.0575C165.525 28.6735 166.449 28.1215 167.217 27.4015C168.009 26.6815 168.657 25.8415 169.161 24.8815L165.453 23.2975C165.069 24.0655 164.529 24.7015 163.833 25.2055C163.137 25.6855 162.249 25.9255 161.169 25.9255C160.185 25.9255 159.285 25.7095 158.469 25.2775C157.677 24.8215 157.041 24.1735 156.561 23.3335C156.221 22.7069 156.008 21.9869 155.922 21.1735H169.521C169.521 19.0135 169.137 17.1535 168.369 15.5935C167.601 14.0335 166.569 12.8455 165.273 12.0295C164.001 11.1895 162.561 10.7695 160.953 10.7695C159.177 10.7695 157.593 11.1775 156.201 11.9935C154.833 12.7855 153.753 13.8895 152.961 15.3055C152.169 16.7215 151.773 18.3535 151.773 20.2015C151.773 22.0495 152.157 23.6815 152.925 25.0975C153.717 26.5135 154.785 27.6295 156.129 28.4455ZM165.088 17.9695C165.025 17.7422 164.955 17.5262 164.877 17.3215C164.517 16.3135 163.989 15.5695 163.293 15.0895C162.621 14.5855 161.793 14.3335 160.809 14.3335C159.777 14.3335 158.889 14.5615 158.145 15.0175C157.401 15.4735 156.837 16.1455 156.453 17.0335C156.326 17.3204 156.22 17.6324 156.134 17.9695H165.088Z" fill="#0E1011"/>
<path d="M117.113 4V29.2H121.145V4H117.113Z" fill="#0E1011"/>
<path fill-rule="evenodd" clip-rule="evenodd" d="M109.561 29.2L109.416 26.5128C108.918 27.3034 108.307 27.9592 107.581 28.48C106.501 29.248 105.205 29.632 103.693 29.632C102.061 29.632 100.633 29.248 99.4086 28.48C98.2086 27.688 97.2606 26.584 96.5646 25.168C95.8926 23.752 95.5566 22.096 95.5566 20.2C95.5566 18.28 95.8926 16.624 96.5646 15.232C97.2606 13.816 98.2086 12.724 99.4086 11.956C100.633 11.164 102.061 10.768 103.693 10.768C105.205 10.768 106.501 11.164 107.581 11.956C108.289 12.4491 108.889 13.0758 109.381 13.836V4H113.377V29.2H109.561ZM108.769 23.188C109.177 22.324 109.381 21.328 109.381 20.2C109.381 19.072 109.177 18.076 108.769 17.212C108.385 16.348 107.833 15.676 107.113 15.196C106.417 14.716 105.601 14.476 104.665 14.476C103.705 14.476 102.853 14.716 102.109 15.196C101.365 15.676 100.777 16.348 100.345 17.212C99.9366 18.076 99.7206 19.072 99.6966 20.2C99.7206 21.328 99.9366 22.324 100.345 23.188C100.777 24.052 101.365 24.736 102.109 25.24C102.877 25.72 103.741 25.96 104.701 25.96C105.613 25.96 106.417 25.72 107.113 25.24C107.833 24.736 108.385 24.052 108.769 23.188Z" fill="#0E1011"/>
<path d="M88.7773 4V29.2H92.8093V4H88.7773Z" fill="#0E1011"/>
<path fill-rule="evenodd" clip-rule="evenodd" d="M76.8583 29.6335C75.0583 29.6335 73.4503 29.2375 72.0343 28.4455C70.6423 27.6295 69.5503 26.5135 68.7583 25.0975C67.9663 23.6815 67.5703 22.0495 67.5703 20.2015C67.5703 18.3535 67.9543 16.7215 68.7223 15.3055C69.5143 13.8895 70.6063 12.7855 71.9983 11.9935C73.3903 11.1775 74.9863 10.7695 76.7863 10.7695C78.5863 10.7695 80.1823 11.1775 81.5743 11.9935C82.9665 12.7855 84.0463 13.8895 84.8143 15.3055C85.6063 16.7215 86.0023 18.3535 86.0023 20.2015C86.0023 22.0495 85.6183 23.6815 84.8503 25.0975C84.0823 26.5135 83.0023 27.6295 81.6103 28.4455C80.2183 29.2375 78.6343 29.6335 76.8583 29.6335ZM76.8583 25.9255C77.8423 25.9255 78.7183 25.6855 79.4863 25.2055C80.2543 24.7015 80.8543 24.0295 81.2863 23.1895C81.7183 22.3255 81.9343 21.3295 81.9343 20.2015C81.9343 19.0735 81.7065 18.0895 81.2505 17.2495C80.8183 16.3855 80.2183 15.7135 79.4503 15.2335C78.6823 14.7295 77.7943 14.4775 76.7863 14.4775C75.7783 14.4775 74.8903 14.7175 74.1223 15.1975C73.3543 15.6775 72.7543 16.3495 72.3223 17.2135C71.8903 18.0775 71.6743 19.0735 71.6743 20.2015C71.6743 21.3295 71.8903 22.3255 72.3223 23.1895C72.7783 24.0295 73.3903 24.7015 74.1583 25.2055C74.9503 25.6855 75.8503 25.9255 76.8583 25.9255Z" fill="#0E1011"/>
<path fill-rule="evenodd" clip-rule="evenodd" d="M52.1377 36.5455C53.1697 36.7615 54.3217 36.8695 55.5937 36.8695C57.4417 36.8695 59.0617 36.4975 60.4537 35.7535C61.8457 35.0335 62.9257 33.9535 63.6937 32.5135C64.4617 31.0975 64.8457 29.3695 64.8457 27.3295V11.2015H60.8137V14.1041C60.2761 13.2101 59.6041 12.4826 58.7977 11.9215C57.7177 11.1535 56.4457 10.7695 54.9817 10.7695C53.3497 10.7695 51.9217 11.1535 50.6977 11.9215C49.4977 12.6895 48.5497 13.7575 47.8537 15.1255C47.1817 16.4935 46.8457 18.1135 46.8457 19.9855C46.8457 21.7375 47.1817 23.2855 47.8537 24.6295C48.5497 25.9495 49.4977 26.9815 50.6977 27.7255C51.9217 28.4695 53.3497 28.8415 54.9817 28.8415C56.4457 28.8415 57.7177 28.4815 58.7977 27.7615C59.6041 27.2181 60.2761 26.5209 60.8137 25.6699V27.4375C60.8137 28.7815 60.5857 29.8855 60.1297 30.7495C59.6737 31.6135 59.0377 32.2495 58.2217 32.6575C57.4057 33.0895 56.4817 33.3055 55.4497 33.3055C54.4897 33.3055 53.6257 33.2095 52.8577 33.0175C52.0897 32.8255 51.4177 32.5975 50.8417 32.3335C50.2897 32.0935 49.8457 31.8895 49.5097 31.7215L47.9617 34.9615C48.3457 35.2255 48.8857 35.5015 49.5817 35.7895C50.2777 36.0775 51.1297 36.3295 52.1377 36.5455ZM58.4737 24.7015C57.8017 25.1815 57.0097 25.4215 56.0977 25.4215C55.1377 25.4215 54.2857 25.1815 53.5417 24.7015C52.7977 24.2215 52.2097 23.5735 51.7777 22.7575C51.3697 21.9175 51.1657 20.9575 51.1657 19.8775C51.1657 18.7735 51.3697 17.8135 51.7777 16.9975C52.2097 16.1575 52.7857 15.5095 53.5057 15.0535C54.2497 14.5735 55.1017 14.3335 56.0617 14.3335C56.9737 14.3335 57.7777 14.5735 58.4737 15.0535C59.1697 15.5095 59.7097 16.1575 60.0937 16.9975C60.4777 17.8135 60.6697 18.7735 60.6697 19.8775C60.6697 20.9575 60.4777 21.9175 60.0937 22.7575C59.7097 23.5735 59.1697 24.2215 58.4737 24.7015Z" fill="#0E1011"/>
</g>
</g>
<defs>
<clipPath id="clip0_3903_10019">
<rect width="169.6" height="40" fill="white"/>
</clipPath>
</defs>
</svg>
