<svg width="179" height="40" fill="none" xmlns="http://www.w3.org/2000/svg"><g clip-path="url(#a)"><mask id="b" style="mask-type:luminance" maskUnits="userSpaceOnUse" x="0" y="0" width="179" height="40"><path d="M179 0H0v40h179V0Z" fill="#fff"/></mask><g mask="url(#b)" fill="#0E1011"><path d="M16.13 39.898h-3.058v-40l3.058 2.548v37.452Zm-9.683.002h3.058V7.651L6.447 10.2v29.7Zm-3.312-.003H.078V17.84l3.057-2.548v24.604Zm25.987 0h-3.058V15.293l3.058 2.548v22.056Zm-9.427.003h3.058V10.2l-3.058-2.548V39.9Z"/><path fill-rule="evenodd" clip-rule="evenodd" d="M62.389 28.626v-1.375h-3.4v1.314c0 2.934.95 5.554 5.04 5.554s5.179-2.956 5.179-6.112c0-3.743-1.005-5.172-4.286-7.64-1.926-1.428-2.22-2.292-2.22-3.766 0-1.475.259-2.445 1.397-2.445 1.137 0 1.396.962 1.396 2.49v1.093h3.35v-1.192c0-2.414-.712-5.348-4.67-5.348-3.957 0-4.83 2.957-4.83 5.883 0 3.293 1.264 4.515 3.616 6.395 2.352 1.88 2.862 2.62 2.862 5.012 0 1.443-.377 2.712-1.662 2.712-1.284 0-1.772-.925-1.772-2.575Zm-19.76 5.172.76-5.944h3.386l.865 5.944h3.532l-3.665-22.24h-4.774l-3.532 22.24h3.427Zm2.505-18.978c.251 2.514.726 6.097 1.229 9.879h-2.527l.216-1.63v-.001c.41-3.07.894-6.7.97-8.248h.112Zm42.927 18.978h-2.638a13.082 13.082 0 0 1-.182-1.665c-.607 1.482-1.885 1.994-3.295 1.994-3.224 0-4.264-2.369-4.264-6.112V17.54c0-3.629 1.396-6.303 5.2-6.303 4.6 0 5.088 3.43 5.088 5.822v.718h-3.399v-.886c0-1.177-.168-2.529-1.71-2.529-1.236 0-1.76.863-1.76 2.644V28.38c0 1.78.51 2.705 1.732 2.705 1.466 0 1.822-1.238 1.822-3.53V24.31h-1.899v-2.95h5.305v12.438Zm11.797 0 .768-5.944h3.357l.865 5.944h3.518l-3.664-22.24h-4.774l-3.49 22.24h3.42Zm2.513-18.978c.251 2.514.725 6.097 1.228 9.879h-2.555l.217-1.631v-.001c.409-3.07.893-6.7.97-8.247h.14Zm17.554 9.038v9.932h-3.378V11.558h4.676c3.337 0 5.305 1.36 5.305 5.348v.848c0 3.415-1.396 4.286-2.227 4.638 1.278.61 2.004 1.528 2.004 4.584-.056 2.279.011 4.56.202 6.83h-3.267c-.247-1.155-.234-4.04-.225-5.845l.002-.764c0-2.712-.349-3.33-2.31-3.33l-.782-.009Zm0-2.834h.775c1.786 0 2.443-.688 2.443-3.102v-.764c0-1.719-.349-2.766-2.262-2.766h-.956v6.632Zm20.361-9.466h-4.684v22.24h4.684c5.207 0 5.779-3.736 5.779-7.136v-8.526c0-4.133-1.13-6.578-5.779-6.578Zm-.188 19.322h-1.082V14.507h1.061c2.233 0 2.582 1.314 2.582 3.354v9.267c0 2.3-.335 3.752-2.561 3.752Zm18.461-19.322v22.24h-3.378v-22.24h3.378Zm11.713 22.24.767-5.944h3.372l.858 5.944h3.532l-3.664-22.24h-4.775l-3.532 22.24h3.442Zm3.558-10.442.176 1.343h-2.541l.132-.98c.428-3.19.973-7.24 1.055-8.899h.125c.222 2.214.622 5.258 1.053 8.536Z"/></g></g><defs><clipPath id="a"><path fill="#fff" d="M0 0h179v40H0z"/></clipPath></defs></svg>