<svg width="170" height="40" fill="none" xmlns="http://www.w3.org/2000/svg"><g clip-path="url(#a)"><mask id="b" style="mask-type:luminance" maskUnits="userSpaceOnUse" x="0" y="0" width="170" height="40"><path d="M169.6 0H0v40h169.6V0Z" fill="#fff"/></mask><g mask="url(#b)" fill="#0E1011"><path d="M20.108 0C8.166 0 0 7.6 0 20.108 0 32.05 8.166 40 20.108 40S40 32.05 40 20.108C40 7.6 32.05 0 20.108 0Zm11.878 31.986A13.806 13.806 0 0 1 29.4 34.01V17.6l-3.6-2v20a18.672 18.672 0 0 1-4 .73v-26.3l-3.6-2v28.288a19.012 19.012 0 0 1-3.8-.708V16.8l-3.6 2v15.238c-4.542-2.706-7.2-7.6-7.2-13.938 0-5.086 1.554-9.296 4.496-12.176C10.988 5.098 15.142 3.6 20.108 3.6S29.158 5.092 32 7.912c2.882 2.868 4.4 7.086 4.4 12.2 0 4.888-1.526 8.988-4.414 11.874ZM125.19 11.2h3.996l-.036 18h-3.996l.036-18Zm1.981-3.421a2.377 2.377 0 0 1-1.692-.684 2.377 2.377 0 0 1-.684-1.692c0-.648.228-1.2.684-1.656a2.377 2.377 0 0 1 1.692-.684c.648 0 1.2.228 1.656.683a2.2 2.2 0 0 1 .72 1.656c0 .649-.24 1.212-.72 1.692a2.256 2.256 0 0 1-1.656.684Zm6.011 21.422h4.032v-9.396c0-1.703.372-3.011 1.116-3.923.744-.912 1.788-1.357 3.132-1.332.792 0 1.476.155 2.052.467.6.313 1.056.865 1.368 1.657.336.768.504 1.872.504 3.311v9.216h4.032V18.905c0-2.76-.6-4.8-1.8-6.12-1.176-1.344-2.856-2.015-5.04-2.015-1.416 0-2.64.36-3.672 1.08a6.016 6.016 0 0 0-1.754 1.855l-.19-2.504h-3.78v18Z"/><path fill-rule="evenodd" clip-rule="evenodd" d="M156.129 28.445c1.368.793 2.928 1.189 4.68 1.189 1.368 0 2.58-.192 3.636-.576 1.08-.384 2.004-.936 2.772-1.657a9.083 9.083 0 0 0 1.944-2.52l-3.708-1.584a5.186 5.186 0 0 1-1.62 1.909c-.696.48-1.584.72-2.664.72-.984 0-1.884-.216-2.7-.648-.792-.456-1.428-1.104-1.908-1.944-.34-.627-.553-1.347-.639-2.16h13.599c0-2.16-.384-4.02-1.152-5.58-.768-1.56-1.8-2.748-3.096-3.564-1.272-.84-2.712-1.26-4.32-1.26-1.776 0-3.36.408-4.752 1.223-1.368.793-2.448 1.896-3.24 3.313-.792 1.415-1.188 3.048-1.188 4.896 0 1.847.384 3.48 1.152 4.895.792 1.416 1.86 2.532 3.204 3.348Zm8.959-10.476a7.283 7.283 0 0 0-.211-.648c-.36-1.008-.888-1.752-1.584-2.232-.672-.504-1.5-.755-2.484-.755-1.032 0-1.92.228-2.664.684-.744.455-1.308 1.127-1.692 2.015a5.932 5.932 0 0 0-.319.936h8.954Z"/><path d="M117.113 4v25.2h4.032V4h-4.032Z"/><path fill-rule="evenodd" clip-rule="evenodd" d="m109.561 29.2-.145-2.687a6.942 6.942 0 0 1-1.835 1.967c-1.08.768-2.376 1.152-3.888 1.152-1.632 0-3.06-.384-4.284-1.152-1.2-.792-2.148-1.896-2.844-3.312-.672-1.416-1.008-3.072-1.008-4.968 0-1.92.336-3.576 1.008-4.968.696-1.416 1.644-2.508 2.844-3.276 1.224-.792 2.652-1.188 4.284-1.188 1.512 0 2.808.396 3.888 1.188a6.69 6.69 0 0 1 1.8 1.88V4h3.996v25.2h-3.816Zm-.792-6.012c.408-.864.612-1.86.612-2.988s-.204-2.124-.612-2.988c-.384-.864-.936-1.536-1.656-2.016-.696-.48-1.512-.72-2.448-.72-.96 0-1.812.24-2.556.72s-1.332 1.152-1.764 2.016c-.408.864-.624 1.86-.648 2.988.024 1.128.24 2.124.648 2.988.432.864 1.02 1.548 1.764 2.052.768.48 1.632.72 2.592.72.912 0 1.716-.24 2.412-.72.72-.504 1.272-1.188 1.656-2.052Z"/><path d="M88.777 4v25.2h4.032V4h-4.032Z"/><path fill-rule="evenodd" clip-rule="evenodd" d="M76.858 29.634c-1.8 0-3.408-.396-4.824-1.189a8.779 8.779 0 0 1-3.276-3.348c-.792-1.416-1.188-3.048-1.188-4.896 0-1.848.384-3.48 1.152-4.896a8.521 8.521 0 0 1 3.276-3.312c1.392-.816 2.988-1.223 4.788-1.223 1.8 0 3.396.408 4.788 1.223a8.273 8.273 0 0 1 3.24 3.313c.792 1.415 1.188 3.048 1.188 4.896 0 1.847-.384 3.48-1.152 4.895a8.52 8.52 0 0 1-3.24 3.348c-1.392.793-2.976 1.189-4.752 1.189Zm0-3.709c.984 0 1.86-.24 2.628-.72a5.22 5.22 0 0 0 1.8-2.015c.432-.864.648-1.86.648-2.989 0-1.128-.227-2.111-.683-2.951-.433-.864-1.033-1.537-1.8-2.017-.769-.504-1.657-.756-2.665-.756s-1.896.24-2.664.72c-.768.48-1.368 1.152-1.8 2.017-.432.864-.648 1.86-.648 2.988 0 1.127.216 2.123.648 2.987a5.51 5.51 0 0 0 1.836 2.017c.792.48 1.692.72 2.7.72Zm-24.72 10.62c1.032.216 2.184.325 3.456.325 1.848 0 3.468-.372 4.86-1.116 1.392-.72 2.472-1.8 3.24-3.24.768-1.417 1.152-3.145 1.152-5.185V11.201h-4.032v2.903a7.029 7.029 0 0 0-2.016-2.182c-1.08-.769-2.352-1.152-3.816-1.152-1.632 0-3.06.383-4.284 1.152-1.2.768-2.148 1.835-2.844 3.204-.672 1.368-1.008 2.987-1.008 4.86 0 1.752.336 3.3 1.008 4.643.696 1.32 1.644 2.352 2.844 3.096 1.224.744 2.652 1.116 4.284 1.116 1.464 0 2.736-.36 3.816-1.08a6.987 6.987 0 0 0 2.016-2.091v1.767c0 1.345-.228 2.448-.684 3.313-.456.863-1.092 1.5-1.908 1.907-.816.433-1.74.649-2.772.649-.96 0-1.824-.096-2.592-.288a11.62 11.62 0 0 1-2.016-.684 28.55 28.55 0 0 1-1.332-.613l-1.548 3.24c.384.264.924.54 1.62.828.696.288 1.548.54 2.556.756Zm6.336-11.844c-.672.48-1.464.72-2.376.72-.96 0-1.812-.24-2.556-.72a5.113 5.113 0 0 1-1.764-1.944c-.408-.84-.612-1.8-.612-2.88 0-1.104.204-2.063.612-2.88.432-.84 1.008-1.488 1.728-1.944.744-.48 1.596-.72 2.556-.72.912 0 1.716.24 2.412.72.696.456 1.236 1.104 1.62 1.944.384.817.576 1.776.576 2.88 0 1.08-.192 2.04-.576 2.88-.384.816-.924 1.464-1.62 1.944Z"/></g></g><defs><clipPath id="a"><path fill="#fff" d="M0 0h169.6v40H0z"/></clipPath></defs></svg>