<svg width="340" height="80" fill="none" xmlns="http://www.w3.org/2000/svg"><mask id="a" style="mask-type:luminance" maskUnits="userSpaceOnUse" x="0" y="0" width="340" height="80"><path d="M339.2 0H0v80h339.2V0Z" fill="#fff"/></mask><g mask="url(#a)" fill="#fff"><path d="M40.216 0C16.332 0 0 15.2 0 40.216 0 64.1 16.332 80 40.216 80S80 64.1 80 40.216C80 15.2 64.1 0 40.216 0Zm23.756 63.972A27.612 27.612 0 0 1 58.8 68.02V35.2l-7.2-4v40a37.345 37.345 0 0 1-8 1.46v-52.6l-7.2-4v56.576a38.023 38.023 0 0 1-7.6-1.416V33.6l-7.2 4v30.476C12.516 62.664 7.2 52.876 7.2 40.2c0-10.172 3.108-18.592 8.992-24.352C21.976 10.196 30.284 7.2 40.216 7.2s18.1 2.984 23.784 8.624c5.764 5.736 8.8 14.172 8.8 24.4 0 9.776-3.052 17.976-8.828 23.748ZM250.381 22.4h7.992l-.072 36h-7.992l.072-36Zm3.959-6.84c-1.296 0-2.424-.455-3.384-1.367-.912-.96-1.368-2.088-1.368-3.384 0-1.296.456-2.4 1.368-3.312.96-.912 2.088-1.368 3.384-1.368 1.296 0 2.4.456 3.312 1.368.96.912 1.44 2.016 1.44 3.312 0 1.296-.48 2.424-1.44 3.384-.912.912-2.016 1.368-3.312 1.368Zm12.023 42.84h8.064V39.606c0-3.408.744-6.024 2.232-7.848 1.488-1.824 3.576-2.712 6.264-2.664 1.584 0 2.952.312 4.104.936 1.2.624 2.112 1.728 2.736 3.312.672 1.536 1.008 3.744 1.008 6.624V58.4h8.064V37.807c0-5.52-1.2-9.6-3.6-12.24-2.352-2.688-5.712-4.032-10.08-4.032-2.832 0-5.28.72-7.344 2.16-1.385.934-2.554 2.171-3.507 3.71l-.381-5.006h-7.56v36Z"/><path fill-rule="evenodd" clip-rule="evenodd" d="M312.261 56.887c2.736 1.584 5.856 2.376 9.36 2.376 2.736 0 5.16-.384 7.272-1.152 2.16-.768 4.008-1.872 5.544-3.312a18.166 18.166 0 0 0 3.888-5.04l-7.416-3.168a10.372 10.372 0 0 1-3.24 3.816c-1.392.96-3.168 1.44-5.328 1.44-1.968 0-3.768-.432-5.4-1.296-1.584-.912-2.856-2.208-3.816-3.888-.681-1.253-1.107-2.693-1.28-4.32h27.2c0-4.32-.768-8.04-2.304-11.16-1.536-3.12-3.6-5.496-6.192-7.128-2.544-1.68-5.424-2.52-8.64-2.52-3.552 0-6.72.816-9.504 2.448-2.736 1.584-4.896 3.792-6.48 6.624-1.584 2.832-2.376 6.096-2.376 9.792 0 3.696.768 6.96 2.304 9.792 1.584 2.832 3.72 5.064 6.408 6.696Zm17.916-20.952a13.907 13.907 0 0 0-.42-1.296c-.72-2.016-1.776-3.504-3.168-4.464-1.344-1.008-3-1.512-4.968-1.512-2.064 0-3.84.456-5.328 1.368-1.488.912-2.616 2.256-3.384 4.032a11.561 11.561 0 0 0-.638 1.872h17.906Z"/><path d="M234.229 8v50.4h8.064V8h-8.064Z"/><path fill-rule="evenodd" clip-rule="evenodd" d="m219.121 58.4-.289-5.374c-.995 1.58-2.219 2.892-3.671 3.934-2.16 1.536-4.752 2.304-7.776 2.304-3.264 0-6.12-.768-8.568-2.304-2.4-1.584-4.296-3.792-5.688-6.624-1.344-2.832-2.016-6.144-2.016-9.936 0-3.84.672-7.152 2.016-9.936 1.392-2.832 3.288-5.016 5.688-6.552 2.448-1.584 5.304-2.376 8.568-2.376 3.024 0 5.616.792 7.776 2.376 1.418.986 2.618 2.24 3.6 3.76V8h7.992v50.4h-7.632Zm-1.584-12.024c.816-1.728 1.224-3.72 1.224-5.976s-.408-4.248-1.224-5.976c-.768-1.728-1.872-3.072-3.312-4.032-1.392-.96-3.024-1.44-4.896-1.44-1.92 0-3.624.48-5.112 1.44s-2.664 2.304-3.528 4.032c-.816 1.728-1.248 3.72-1.296 5.976.048 2.256.48 4.248 1.296 5.976.864 1.728 2.04 3.096 3.528 4.104 1.536.96 3.264 1.44 5.184 1.44 1.824 0 3.432-.48 4.824-1.44 1.44-1.008 2.544-2.376 3.312-4.104Z"/><path d="M177.553 8v50.4h8.064V8h-8.064Z"/><path fill-rule="evenodd" clip-rule="evenodd" d="M153.717 59.263c-3.6 0-6.816-.792-9.648-2.376-2.784-1.632-4.968-3.864-6.552-6.696-1.584-2.832-2.376-6.096-2.376-9.792 0-3.696.768-6.96 2.304-9.792 1.584-2.832 3.768-5.04 6.552-6.624 2.784-1.632 5.976-2.448 9.576-2.448 3.6 0 6.792.816 9.576 2.448 2.784 1.584 4.944 3.792 6.48 6.624 1.584 2.832 2.376 6.096 2.376 9.792 0 3.696-.768 6.96-2.304 9.792-1.536 2.832-3.696 5.064-6.48 6.696-2.784 1.584-5.952 2.376-9.504 2.376Zm0-7.416c1.968 0 3.72-.48 5.256-1.44 1.536-1.008 2.736-2.352 3.6-4.032.864-1.728 1.296-3.72 1.296-5.976s-.456-4.224-1.368-5.904c-.864-1.728-2.064-3.072-3.6-4.032-1.536-1.008-3.312-1.512-5.328-1.512-2.016 0-3.792.48-5.328 1.44-1.536.96-2.736 2.304-3.6 4.032-.864 1.728-1.296 3.72-1.296 5.976s.432 4.248 1.296 5.976c.912 1.68 2.136 3.024 3.672 4.032 1.584.96 3.384 1.44 5.4 1.44Zm-49.442 21.24c2.064.432 4.368.648 6.912.648 3.696 0 6.936-.744 9.72-2.232 2.784-1.44 4.944-3.6 6.48-6.48 1.536-2.832 2.304-6.288 2.304-10.368V22.4h-8.064v5.805c-1.075-1.788-2.419-3.243-4.032-4.365-2.16-1.536-4.704-2.304-7.632-2.304-3.264 0-6.12.768-8.568 2.304-2.4 1.536-4.296 3.672-5.688 6.408-1.344 2.736-2.016 5.976-2.016 9.72 0 3.504.672 6.6 2.016 9.288 1.392 2.64 3.288 4.704 5.688 6.192 2.448 1.488 5.304 2.232 8.568 2.232 2.928 0 5.472-.72 7.632-2.16 1.613-1.087 2.957-2.481 4.032-4.183v3.535c0 2.688-.456 4.896-1.368 6.624-.912 1.728-2.184 3-3.816 3.816-1.632.864-3.48 1.296-5.544 1.296-1.92 0-3.648-.192-5.184-.576-1.536-.384-2.88-.84-4.032-1.368a57.056 57.056 0 0 1-2.664-1.224l-3.096 6.48c.768.528 1.848 1.08 3.24 1.656 1.392.576 3.096 1.08 5.112 1.512ZM116.947 49.4c-1.344.96-2.928 1.44-4.752 1.44-1.92 0-3.624-.48-5.112-1.44s-2.664-2.256-3.528-3.888c-.816-1.68-1.224-3.6-1.224-5.76 0-2.208.408-4.128 1.224-5.76.864-1.68 2.016-2.976 3.456-3.888 1.488-.96 3.192-1.44 5.112-1.44 1.824 0 3.432.48 4.824 1.44 1.392.912 2.472 2.208 3.24 3.888.768 1.632 1.152 3.552 1.152 5.76 0 2.16-.384 4.08-1.152 5.76-.768 1.632-1.848 2.928-3.24 3.888Z"/></g></svg>