<svg width="361" height="90" fill="none" xmlns="http://www.w3.org/2000/svg"><g clip-path="url(#a)" fill="#fff"><path d="m349.052 8.291 10.949 73.416h-19.58l-.954-13.195h-6.86l-1.136 13.195h-19.807l9.722-73.416h27.666Zm-10.13 47.206c-.969-8.313-1.939-18.577-2.908-30.79-1.938 14.027-3.15 24.29-3.634 30.79h6.542ZM309.278 8.291v73.416h-19.126V8.291h19.126Zm-25.827 22.221h-17.763V25.07c0-2.54-.227-4.157-.681-4.852-.455-.695-1.212-1.043-2.272-1.043-1.151 0-2.029.469-2.635 1.406-.575.937-.863 2.358-.863 4.262 0 2.45.333 4.293.999 5.533.636 1.24 2.438 2.736 5.406 4.489 8.511 5.049 13.871 9.19 16.082 12.425 2.211 3.235 3.317 8.45 3.317 15.645 0 5.23-.621 9.084-1.863 11.563-1.211 2.479-3.574 4.565-7.087 6.258-3.513 1.663-7.602 2.494-12.266 2.494-5.118 0-9.495-.968-13.129-2.902-3.604-1.935-5.966-4.399-7.087-7.392-1.12-2.993-1.681-7.24-1.681-12.742v-4.807h17.763v8.934c0 2.75.242 4.519.727 5.305.515.786 1.408 1.18 2.681 1.18 1.271 0 2.21-.5 2.816-1.498.636-.997.954-2.478.954-4.443 0-4.324-.591-7.15-1.772-8.48-1.211-1.33-4.194-3.553-8.949-6.666-4.755-3.144-7.905-5.427-9.45-6.848-1.544-1.42-2.831-3.386-3.861-5.895-1-2.509-1.499-5.713-1.499-9.613 0-5.623.711-9.735 2.135-12.334 1.454-2.6 3.786-4.626 6.996-6.077 3.21-1.481 7.087-2.222 11.63-2.222 4.967 0 9.192.801 12.675 2.403 3.513 1.603 5.83 3.628 6.95 6.077 1.151 2.418 1.727 6.545 1.727 12.38v2.902ZM236.679 51.28c0 7.377-.181 12.607-.545 15.69-.333 3.054-1.423 5.85-3.271 8.39-1.817 2.539-4.285 4.489-7.405 5.85-3.119 1.36-6.754 2.04-10.903 2.04-3.937 0-7.48-.635-10.63-1.904-3.119-1.3-5.633-3.236-7.541-5.805-1.908-2.57-3.044-5.366-3.407-8.39-.364-3.022-.545-8.313-.545-15.87V38.719c0-7.376.166-12.59.499-15.644a17.875 17.875 0 0 1 3.271-8.435c1.847-2.54 4.331-4.489 7.45-5.85 3.12-1.36 6.754-2.04 10.903-2.04 3.937 0 7.466.65 10.585 1.95 3.15 1.27 5.679 3.19 7.587 5.759 1.908 2.57 3.044 5.366 3.407 8.39.364 3.022.545 8.313.545 15.87v12.562Zm-19.125-24.124c0-3.416-.197-5.593-.591-6.53-.363-.967-1.135-1.451-2.317-1.451-.999 0-1.771.393-2.317 1.179-.515.756-.772 3.023-.772 6.802v34.282c0 4.263.167 6.893.5 7.89.363.998 1.181 1.497 2.453 1.497 1.302 0 2.135-.575 2.498-1.723.364-1.149.546-3.885.546-8.208V27.156ZM189.547 8.291v14.692H178.19v58.724h-19.126V22.983h-11.312V8.291h41.795Zm-44.998 0v49.065c0 5.563-.182 9.478-.545 11.745-.364 2.237-1.439 4.55-3.226 6.938-1.787 2.358-4.149 4.157-7.087 5.396-2.907 1.21-6.345 1.814-10.312 1.814-4.391 0-8.268-.725-11.63-2.176-3.362-1.452-5.875-3.34-7.541-5.669-1.666-2.328-2.65-4.776-2.953-7.346-.303-2.6-.454-8.041-.454-16.325V8.291h19.125v55.051c0 3.205.167 5.26.5 6.167.364.877 1.075 1.315 2.135 1.315 1.212 0 1.984-.483 2.317-1.451.364-.998.545-3.326.545-6.983V8.29h19.126Z"/><path fill-rule="evenodd" clip-rule="evenodd" d="M45 67.5c12.426 0 22.5-10.074 22.5-22.5S57.426 22.5 45 22.5 22.5 32.574 22.5 45 32.574 67.5 45 67.5ZM45 90c24.853 0 45-20.147 45-45S69.853 0 45 0 0 20.147 0 45s20.147 45 45 45Z"/></g><defs><clipPath id="a"><path fill="#fff" d="M0 0h360.45v90H0z"/></clipPath></defs></svg>