<svg width="360" height="90" fill="none" xmlns="http://www.w3.org/2000/svg"><g clip-path="url(#a)"><mask id="b" style="mask-type:luminance" maskUnits="userSpaceOnUse" x="0" y="0" width="360" height="90"><path d="M359.55 0H0v90h359.55V0Z" fill="#fff"/></mask><g mask="url(#b)" fill="#fff"><path fill-rule="evenodd" clip-rule="evenodd" d="m51.882.586 17.205 20.397 4.013 37.69-30.367 31.913L7.4 58.569l17.79-45.267L51.883.586Zm-25.148 16.19 14.19 14.992-14.512 21.05-15.21 3.478 15.532-39.52ZM11.842 58.935l26.971 24.442-12.37-27.78-14.601 3.338Zm17.563-3.342 13.671 30.701 25.704-27.01-39.375-3.691Zm40.56-.816L66.63 23.468l-21.461 8.62 24.795 22.688ZM43.011 30.031l22.529-9.05L51.16 3.935 28.52 14.722 43.01 30.03Zm-.117 3.652 24.896 22.78-38.137-3.575 13.24-19.205Z"/><path d="M180.91 71.315c-7.623 0-14.058-2.475-19.206-7.524-5.148-5.049-7.722-11.385-7.722-18.909 0-7.524 2.574-13.76 7.722-18.81 5.148-5.049 11.583-7.623 19.206-7.623 6.435 0 11.979 1.881 16.83 5.643 4.851 3.663 7.92 8.514 9.207 14.355h-9.009c-2.673-7.029-9.108-11.78-17.028-11.78-5.247 0-9.504 1.781-12.969 5.246-3.465 3.465-5.148 7.722-5.148 12.97 0 5.246 1.683 9.602 5.148 13.067s7.722 5.148 12.969 5.148c7.92 0 14.355-4.752 17.028-11.78h9.009c-1.287 5.84-4.356 10.691-9.207 14.453-4.851 3.663-10.395 5.544-16.83 5.544Zm110.118-47.619c-3.465-3.465-8.019-5.247-13.662-5.247-8.415 0-14.553 3.465-18.216 10.494-2.871-6.633-9.207-10.494-17.226-10.494-7.326 0-12.87 2.772-16.533 8.415v-7.227h-8.514v50.49h8.514V40.13c0-8.019 5.544-13.464 13.86-13.464 7.92 0 13.068 5.247 13.068 13.266v30.195h8.514V40.13c0-8.019 5.544-13.464 13.86-13.464 7.92 0 13.068 5.247 13.068 13.266v30.195h8.514v-32.57c0-5.842-1.782-10.396-5.247-13.86Z"/><path fill-rule="evenodd" clip-rule="evenodd" d="M359.206 48.15v-.002c.091-1.173.175-2.261.175-3.266 0-7.524-2.574-13.76-7.722-18.81-5.049-5.049-11.484-7.623-19.107-7.623-7.623 0-14.058 2.574-19.206 7.623-5.049 5.05-7.623 11.286-7.623 18.81 0 7.524 2.574 13.86 7.623 18.91 5.148 5.048 11.583 7.523 19.206 7.523 12.276 0 22.176-6.93 25.839-17.325h-9.405c-2.673 5.643-8.91 9.504-16.434 9.504-4.554 0-8.514-1.386-11.781-4.158-3.267-2.772-5.247-6.435-5.94-10.89h44.352l.023-.297Zm-8.933-7.327H314.93c1.683-8.712 8.613-14.553 17.622-14.553s16.137 5.94 17.721 14.553ZM146.628 19.64h-38.412v8.218h29.898v9.9h-15.048c-5.247 0-9.603 1.584-13.068 4.85-3.465 3.169-5.148 7.129-5.148 11.88 0 4.852 1.683 8.812 5.148 12.079 3.465 3.168 7.821 4.752 13.068 4.752 6.831 0 12.771-2.97 15.939-7.722v6.534h7.623V19.64Zm-8.514 33.958c0 5.94-5.643 9.999-13.959 9.999-6.039 0-10.494-3.861-10.494-9.108 0-5.148 4.455-9.01 10.494-9.01h13.959v8.119Z"/></g></g><defs><clipPath id="a"><path fill="#fff" d="M0 0h359.55v90H0z"/></clipPath></defs></svg>