<svg width="144" height="40" fill="none" xmlns="http://www.w3.org/2000/svg"><g clip-path="url(#a)"><mask id="b" style="mask-type:luminance" maskUnits="userSpaceOnUse" x="0" y="0" width="144" height="40"><path d="M143.2 0H0v40h143.2V0Z" fill="#fff"/></mask><g mask="url(#b)" fill="#0E1011"><path d="M21.168 33.951a14.002 14.002 0 0 0 7.138-2.69l3.876 4.6a20.001 20.001 0 1 1 .012-31.713l-3.878 4.6a14 14 0 1 0-7.148 25.203Z"/><path d="m33.558 34.7-3.876-4.6h.006a13.967 13.967 0 0 0 0-20.2l3.88-4.6a20.002 20.002 0 0 1-.01 29.4Zm79.735-33.497v32.12h3.828V1.203h-3.828Z"/><path fill-rule="evenodd" clip-rule="evenodd" d="M132.29 30.286c-4.092 0-7.216-2.244-7.964-6.204h18.436a11.27 11.27 0 0 0 .132-1.716c0-6.16-4.312-11.616-10.956-11.616-6.864 0-11.528 5.06-11.528 11.572 0 6.6 4.708 11.572 11.792 11.572 4.4 0 7.744-1.98 9.68-4.972l-3.256-1.848c-1.1 1.804-3.3 3.212-6.336 3.212Zm-7.964-9.548c.616-3.828 3.476-6.38 7.612-6.38 3.3 0 6.424 2.024 7.084 6.38h-14.696Z"/><path d="M100.933 33.894c-6.644 0-11.572-5.06-11.572-11.572S94.29 10.75 100.933 10.75c4.356 0 8.052 2.288 9.724 5.764l-3.212 1.848c-1.1-2.332-3.564-3.872-6.512-3.872-4.4 0-7.744 3.388-7.744 7.832 0 4.4 3.344 7.788 7.744 7.788 2.992 0 5.412-1.54 6.644-3.828l3.256 1.892c-1.848 3.432-5.588 5.72-9.9 5.72ZM89.372 10.926c-2.772 0-5.456 1.012-6.864 4.092v-3.696H78.68v22h3.828v-11.66c0-5.192 3.564-6.864 6.864-6.732v-4.004Zm-17.104-3.61c-1.452 0-2.596-1.144-2.596-2.552a2.6 2.6 0 0 1 2.596-2.596c1.408 0 2.552 1.188 2.552 2.596a2.554 2.554 0 0 1-2.552 2.552ZM70.332 33.32v-22h3.828v22h-3.828ZM46.4 22.322c0 6.512 4.928 11.572 11.572 11.572 4.312 0 8.052-2.288 9.9-5.72l-3.256-1.892c-1.232 2.288-3.652 3.828-6.644 3.828-4.4 0-7.744-3.388-7.744-7.788 0-4.444 3.344-7.832 7.744-7.832 2.948 0 5.412 1.54 6.512 3.872l3.212-1.848c-1.672-3.476-5.368-5.764-9.724-5.764-6.644 0-11.572 5.06-11.572 11.572Z"/></g></g><defs><clipPath id="a"><path fill="#fff" d="M0 0h143.2v40H0z"/></clipPath></defs></svg>