<svg width="161" height="40" fill="none" xmlns="http://www.w3.org/2000/svg"><path d="m155.135 3.684 4.866 32.63h-8.703l-.424-5.866h-3.048l-.505 5.865h-8.803l4.321-32.63h12.296Zm-4.503 20.98c-.431-3.695-.861-8.256-1.292-13.685-.862 6.235-1.4 10.796-1.615 13.685h2.907Zm-13.175-20.98v32.63h-8.5V3.683h8.5Zm-11.478 9.876h-7.895v-2.418c0-1.128-.101-1.847-.303-2.156-.202-.31-.538-.464-1.009-.464-.512 0-.902.208-1.171.625-.256.417-.384 1.048-.384 1.894 0 1.089.148 1.908.444 2.46.283.55 1.084 1.215 2.403 1.995 3.782 2.243 6.165 4.084 7.147 5.522.983 1.437 1.474 3.755 1.474 6.953 0 2.324-.276 4.037-.828 5.14-.538 1.101-1.588 2.028-3.149 2.78-1.562.74-3.379 1.109-5.452 1.109-2.275 0-4.22-.43-5.835-1.29-1.602-.86-2.652-1.955-3.15-3.285-.498-1.33-.747-3.218-.747-5.663v-2.137h7.895v3.97c0 1.223.107 2.01.323 2.359.229.35.626.524 1.191.524.565 0 .983-.222 1.252-.665.283-.444.424-1.102.424-1.975 0-1.922-.263-3.178-.788-3.77-.538-.59-1.864-1.578-3.977-2.962-2.113-1.397-3.513-2.412-4.2-3.043-.686-.632-1.258-1.505-1.716-2.62-.444-1.115-.666-2.54-.666-4.273 0-2.499.316-4.326.949-5.482.646-1.155 1.682-2.056 3.109-2.7 1.427-.659 3.15-.988 5.169-.988 2.207 0 4.085.356 5.633 1.068 1.562.712 2.591 1.613 3.089 2.7.512 1.076.768 2.91.768 5.503v1.29Zm-20.788 9.231c0 3.279-.081 5.603-.242 6.974a7.652 7.652 0 0 1-1.454 3.728c-.808 1.129-1.905 1.995-3.291 2.6S97.202 37 95.358 37c-1.75 0-3.325-.282-4.724-.846-1.387-.578-2.504-1.438-3.352-2.58-.848-1.142-1.353-2.385-1.514-3.729-.162-1.343-.243-3.695-.243-7.054V17.21c0-3.279.074-5.596.222-6.954a7.942 7.942 0 0 1 1.454-3.748c.821-1.129 1.925-1.995 3.311-2.6C91.9 3.302 93.514 3 95.358 3c1.75 0 3.318.289 4.705.867 1.4.564 2.523 1.417 3.371 2.56.848 1.141 1.353 2.384 1.515 3.728.161 1.343.242 3.695.242 7.054v5.582Zm-8.5-10.722c0-1.518-.088-2.485-.263-2.902-.161-.43-.504-.645-1.03-.645-.444 0-.787.175-1.03.524-.228.336-.342 1.344-.342 3.023v15.237c0 1.894.074 3.063.222 3.507.161.443.525.665 1.09.665.579 0 .949-.256 1.11-.766.162-.51.243-1.727.243-3.648V12.069ZM84.243 3.684v6.53h-5.047v26.1h-8.5v-26.1h-5.028v-6.53h18.575Zm-19.999 0V25.49c0 2.473-.08 4.213-.242 5.22-.161.995-.64 2.022-1.433 3.084-.795 1.048-1.844 1.847-3.15 2.398-1.292.538-2.82.806-4.583.806-1.952 0-3.675-.322-5.17-.967-1.493-.645-2.61-1.485-3.35-2.52-.741-1.034-1.179-2.122-1.313-3.264-.135-1.156-.202-3.574-.202-7.256V3.684h8.5V28.15c0 1.424.074 2.338.222 2.74.162.39.478.585.95.585.538 0 .88-.215 1.029-.645.161-.443.242-1.478.242-3.103V3.684h8.5Z" fill="#0E1011"/><path fill-rule="evenodd" clip-rule="evenodd" d="M20 30c5.523 0 10-4.477 10-10s-4.477-10-10-10-10 4.477-10 10 4.477 10 10 10Zm0 10c11.046 0 20-8.954 20-20S31.046 0 20 0 0 8.954 0 20s8.954 20 20 20Z" fill="#0E1011"/></svg>